G04*
G04 #@! TF.GenerationSoftware,Altium Limited,Altium Designer,22.4.2 (48)*
G04*
G04 Layer_Color=65535*
%FSLAX44Y44*%
%MOMM*%
G71*
G04*
G04 #@! TF.SameCoordinates,69224164-BCDE-4545-B53B-617D96EECF20*
G04*
G04*
G04 #@! TF.FilePolarity,Positive*
G04*
G01*
G75*
%ADD10C,0.2000*%
%ADD11C,0.1524*%
%ADD12C,0.1270*%
%ADD13C,0.2540*%
%ADD14R,2.0000X0.8000*%
D10*
X279861Y955613D02*
G03*
X314915Y953180I18189J8317D01*
G01*
Y974680D02*
G03*
X279861Y972247I-16865J-10750D01*
G01*
X388350Y378580D02*
G03*
X388350Y378580I-1000J0D01*
G01*
X673523D02*
G03*
X673523Y378580I-1000J0D01*
G01*
X445384D02*
G03*
X445384Y378580I-1000J0D01*
G01*
X901661D02*
G03*
X901661Y378580I-1000J0D01*
G01*
X844626D02*
G03*
X844626Y378580I-1000J0D01*
G01*
X616488D02*
G03*
X616488Y378580I-1000J0D01*
G01*
X559454D02*
G03*
X559454Y378580I-1000J0D01*
G01*
X787592D02*
G03*
X787592Y378580I-1000J0D01*
G01*
X1015730D02*
G03*
X1015730Y378580I-1000J0D01*
G01*
X502419D02*
G03*
X502419Y378580I-1000J0D01*
G01*
X730557D02*
G03*
X730557Y378580I-1000J0D01*
G01*
X958695D02*
G03*
X958695Y378580I-1000J0D01*
G01*
X313690Y897890D02*
X334010D01*
Y836930D02*
Y897890D01*
X313690Y836930D02*
X334010D01*
X313690D02*
Y897890D01*
X323850D02*
Y908050D01*
Y826770D02*
Y836930D01*
X266860Y844410D02*
Y890410D01*
X286860Y844410D02*
Y890410D01*
X266860D02*
X286860D01*
X656936Y547370D02*
X677256D01*
X656936D02*
Y608330D01*
X677256D01*
Y547370D02*
Y608330D01*
X667096Y537210D02*
Y547370D01*
Y608330D02*
Y618490D01*
X431107Y547370D02*
X451427D01*
X431107D02*
Y608330D01*
X451427D01*
Y547370D02*
Y608330D01*
X441267Y537210D02*
Y547370D01*
Y608330D02*
Y618490D01*
X882765Y547370D02*
X903085D01*
X882765D02*
Y608330D01*
X903085D01*
Y547370D02*
Y608330D01*
X892925Y537210D02*
Y547370D01*
Y608330D02*
Y618490D01*
X374650Y547370D02*
X394970D01*
X374650D02*
Y608330D01*
X394970D01*
Y547370D02*
Y608330D01*
X384810Y537210D02*
Y547370D01*
Y608330D02*
Y618490D01*
X826308Y547370D02*
X846628D01*
X826308D02*
Y608330D01*
X846628D01*
Y547370D02*
Y608330D01*
X836468Y537210D02*
Y547370D01*
Y608330D02*
Y618490D01*
X600479Y547370D02*
X620799D01*
X600479D02*
Y608330D01*
X620799D01*
Y547370D02*
Y608330D01*
X610639Y537210D02*
Y547370D01*
Y608330D02*
Y618490D01*
X544022Y547370D02*
X564342D01*
X544022D02*
Y608330D01*
X564342D01*
Y547370D02*
Y608330D01*
X554182Y537210D02*
Y547370D01*
Y608330D02*
Y618490D01*
X769851Y547370D02*
X790171D01*
X769851D02*
Y608330D01*
X790171D01*
Y547370D02*
Y608330D01*
X780011Y537210D02*
Y547370D01*
Y608330D02*
Y618490D01*
X995680Y547370D02*
X1016000D01*
X995680D02*
Y608330D01*
X1016000D01*
Y547370D02*
Y608330D01*
X1005840Y537210D02*
Y547370D01*
Y608330D02*
Y618490D01*
X487565Y547370D02*
X507885D01*
X487565D02*
Y608330D01*
X507885D01*
Y547370D02*
Y608330D01*
X497725Y537210D02*
Y547370D01*
Y608330D02*
Y618490D01*
X713393Y547370D02*
X733714D01*
X713393D02*
Y608330D01*
X733714D01*
Y547370D02*
Y608330D01*
X723553Y537210D02*
Y547370D01*
Y608330D02*
Y618490D01*
X939223Y547370D02*
X959543D01*
X939223D02*
Y608330D01*
X959543D01*
Y547370D02*
Y608330D01*
X949383Y537210D02*
Y547370D01*
Y608330D02*
Y618490D01*
D11*
X530352Y689610D02*
G03*
X530352Y709930I0J10160D01*
G01*
X417830Y689610D02*
G03*
X417830Y709930I0J10160D01*
G01*
X867918Y689610D02*
G03*
X867918Y709930I0J10160D01*
G01*
X642874Y689610D02*
G03*
X642874Y709930I0J10160D01*
G01*
X369570Y803910D02*
G03*
X369570Y824230I0J10160D01*
G01*
X825754Y803910D02*
G03*
X825754Y824230I0J10160D01*
G01*
X597662Y803910D02*
G03*
X597662Y824230I0J10160D01*
G01*
X755396Y689610D02*
G03*
X755396Y709930I0J10160D01*
G01*
X980440Y689610D02*
G03*
X980440Y709930I0J10160D01*
G01*
X483616Y803910D02*
G03*
X483616Y824230I0J10160D01*
G01*
X711708Y803910D02*
G03*
X711708Y824230I0J10160D01*
G01*
X939800Y803910D02*
G03*
X939800Y824230I0J10160D01*
G01*
X530352Y728980D02*
X581152D01*
X530352Y670560D02*
X581152D01*
Y728980D01*
X530352Y709930D02*
Y728980D01*
Y670560D02*
Y689610D01*
X417830Y728980D02*
X468630D01*
X417830Y670560D02*
X468630D01*
Y728980D01*
X417830Y709930D02*
Y728980D01*
Y670560D02*
Y689610D01*
X867918Y728980D02*
X918718D01*
X867918Y670560D02*
X918718D01*
Y728980D01*
X867918Y709930D02*
Y728980D01*
Y670560D02*
Y689610D01*
X642874Y670560D02*
Y689610D01*
Y709930D02*
Y728980D01*
X693674Y670560D02*
Y728980D01*
X642874Y670560D02*
X693674D01*
X642874Y728980D02*
X693674D01*
X369570Y784860D02*
Y803910D01*
Y824230D02*
Y843280D01*
X420370Y784860D02*
Y843280D01*
X369570Y784860D02*
X420370D01*
X369570Y843280D02*
X420370D01*
X825754Y784860D02*
Y803910D01*
Y824230D02*
Y843280D01*
X876554Y784860D02*
Y843280D01*
X825754Y784860D02*
X876554D01*
X825754Y843280D02*
X876554D01*
X597662Y784860D02*
Y803910D01*
Y824230D02*
Y843280D01*
X648462Y784860D02*
Y843280D01*
X597662Y784860D02*
X648462D01*
X597662Y843280D02*
X648462D01*
X755396Y670560D02*
Y689610D01*
Y709930D02*
Y728980D01*
X806196Y670560D02*
Y728980D01*
X755396Y670560D02*
X806196D01*
X755396Y728980D02*
X806196D01*
X980440Y670560D02*
Y689610D01*
Y709930D02*
Y728980D01*
X1031240Y670560D02*
Y728980D01*
X980440Y670560D02*
X1031240D01*
X980440Y728980D02*
X1031240D01*
X483616Y784860D02*
Y803910D01*
Y824230D02*
Y843280D01*
X534416Y784860D02*
Y843280D01*
X483616Y784860D02*
X534416D01*
X483616Y843280D02*
X534416D01*
X711708Y784860D02*
Y803910D01*
Y824230D02*
Y843280D01*
X762508Y784860D02*
Y843280D01*
X711708Y784860D02*
X762508D01*
X711708Y843280D02*
X762508D01*
X939800Y784860D02*
Y803910D01*
Y824230D02*
Y843280D01*
X990600Y784860D02*
Y843280D01*
X939800Y784860D02*
X990600D01*
X939800Y843280D02*
X990600D01*
D12*
X587647Y286500D02*
X689247D01*
X587647D02*
Y358500D01*
Y276500D02*
Y286500D01*
Y276500D02*
X689247D01*
Y286500D01*
Y358500D01*
X587647D02*
X689247D01*
X275070Y1021080D02*
Y1122680D01*
X347070D01*
X265070D02*
X275070D01*
X265070Y1021080D02*
Y1122680D01*
Y1021080D02*
X275070D01*
X347070D01*
Y1122680D01*
X353560Y550780D02*
Y792880D01*
X263660Y550780D02*
Y792880D01*
X321810Y550780D02*
X353560D01*
X263660D02*
X295410D01*
X320110Y792880D02*
X353560D01*
X263660D02*
X297110D01*
X360175Y386080D02*
Y487680D01*
X402125D01*
Y386080D02*
Y487680D01*
X360175Y386080D02*
X402125D01*
X340880Y275590D02*
Y377190D01*
X268880Y275590D02*
X340880D01*
X350880D01*
Y377190D01*
X340880D02*
X350880D01*
X268880D02*
X340880D01*
X268880Y275590D02*
Y377190D01*
X339610Y397510D02*
Y499110D01*
X267610Y397510D02*
X339610D01*
X349610D01*
Y499110D01*
X339610D02*
X349610D01*
X267610D02*
X339610D01*
X267610Y397510D02*
Y499110D01*
X360499Y286500D02*
X462099D01*
X360499D02*
Y358500D01*
Y276500D02*
Y286500D01*
Y276500D02*
X462099D01*
Y286500D01*
Y358500D01*
X360499D02*
X462099D01*
X474073Y286500D02*
X575673D01*
X474073D02*
Y358500D01*
Y276500D02*
Y286500D01*
Y276500D02*
X575673D01*
Y286500D01*
Y358500D01*
X474073D02*
X575673D01*
X701221Y286500D02*
X802821D01*
X701221D02*
Y358500D01*
Y276500D02*
Y286500D01*
Y276500D02*
X802821D01*
Y286500D01*
Y358500D01*
X701221D02*
X802821D01*
X358140Y1070090D02*
X459740D01*
X358140D02*
Y1142090D01*
Y1060090D02*
Y1070090D01*
Y1060090D02*
X459740D01*
Y1070090D01*
Y1142090D01*
X358140D02*
X459740D01*
X469646Y1070090D02*
X571246D01*
X469646D02*
Y1142090D01*
Y1060090D02*
Y1070090D01*
Y1060090D02*
X571246D01*
Y1070090D01*
Y1142090D01*
X469646D02*
X571246D01*
X581152Y1070090D02*
X682752D01*
X581152D02*
Y1142090D01*
Y1060090D02*
Y1070090D01*
Y1060090D02*
X682752D01*
Y1070090D01*
Y1142090D01*
X581152D02*
X682752D01*
X692658Y1070090D02*
X794258D01*
X692658D02*
Y1142090D01*
Y1060090D02*
Y1070090D01*
Y1060090D02*
X794258D01*
Y1070090D01*
Y1142090D01*
X692658D02*
X794258D01*
X645348Y386080D02*
X687298D01*
Y487680D01*
X645348D02*
X687298D01*
X645348Y386080D02*
Y487680D01*
X417210Y386080D02*
X459159D01*
Y487680D01*
X417210D02*
X459159D01*
X417210Y386080D02*
Y487680D01*
X873486Y386080D02*
X915436D01*
Y487680D01*
X873486D02*
X915436D01*
X873486Y386080D02*
Y487680D01*
X814795Y286500D02*
X916395D01*
X814795D02*
Y358500D01*
Y276500D02*
Y286500D01*
Y276500D02*
X916395D01*
Y286500D01*
Y358500D01*
X814795D02*
X916395D01*
X928370Y286500D02*
X1029970D01*
X928370D02*
Y358500D01*
Y276500D02*
Y286500D01*
Y276500D02*
X1029970D01*
Y286500D01*
Y358500D01*
X928370D02*
X1029970D01*
X816451Y386080D02*
X858401D01*
Y487680D01*
X816451D02*
X858401D01*
X816451Y386080D02*
Y487680D01*
X588313Y386080D02*
X630263D01*
Y487680D01*
X588313D02*
X630263D01*
X588313Y386080D02*
Y487680D01*
X804164Y1070090D02*
X905764D01*
X804164D02*
Y1142090D01*
Y1060090D02*
Y1070090D01*
Y1060090D02*
X905764D01*
Y1070090D01*
Y1142090D01*
X804164D02*
X905764D01*
X531279Y386080D02*
X573229D01*
Y487680D01*
X531279D02*
X573229D01*
X531279Y386080D02*
Y487680D01*
X915670Y1070090D02*
X1017270D01*
X915670D02*
Y1142090D01*
Y1060090D02*
Y1070090D01*
Y1060090D02*
X1017270D01*
Y1070090D01*
Y1142090D01*
X915670D02*
X1017270D01*
X759417Y386080D02*
X801367D01*
Y487680D01*
X759417D02*
X801367D01*
X759417Y386080D02*
Y487680D01*
X987555Y386080D02*
X1029505D01*
Y487680D01*
X987555D02*
X1029505D01*
X987555Y386080D02*
Y487680D01*
X474244Y386080D02*
X516194D01*
Y487680D01*
X474244D02*
X516194D01*
X474244Y386080D02*
Y487680D01*
X702382Y386080D02*
X744332D01*
Y487680D01*
X702382D02*
X744332D01*
X702382Y386080D02*
Y487680D01*
X930520Y386080D02*
X972470D01*
Y487680D01*
X930520D02*
X972470D01*
X930520Y386080D02*
Y487680D01*
D13*
X584091Y368808D02*
Y384043D01*
X591709D01*
X594248Y381504D01*
Y376426D01*
X591709Y373886D01*
X584091D01*
X609483Y384043D02*
X599326D01*
Y376426D01*
X604404Y378965D01*
X606944D01*
X609483Y376426D01*
Y371347D01*
X606944Y368808D01*
X601865D01*
X599326Y371347D01*
X277873Y1005328D02*
X275333Y1007867D01*
X270255D01*
X267716Y1005328D01*
Y995171D01*
X270255Y992632D01*
X275333D01*
X277873Y995171D01*
X282951Y992632D02*
X288029D01*
X285490D01*
Y1007867D01*
X282951Y1005328D01*
X315214Y933958D02*
Y949193D01*
X322831D01*
X325371Y946654D01*
Y941575D01*
X322831Y939036D01*
X315214D01*
X320292D02*
X325371Y933958D01*
X340606D02*
X330449D01*
X340606Y944115D01*
Y946654D01*
X338067Y949193D01*
X332988D01*
X330449Y946654D01*
X355841Y949193D02*
X345684D01*
Y941575D01*
X350762Y944115D01*
X353302D01*
X355841Y941575D01*
Y936497D01*
X353302Y933958D01*
X348223D01*
X345684Y936497D01*
X518922Y774949D02*
Y762253D01*
X521461Y759714D01*
X526539D01*
X529079Y762253D01*
Y774949D01*
X534157D02*
X544314D01*
Y772410D01*
X534157Y762253D01*
Y759714D01*
X264922Y1136396D02*
Y1151631D01*
X272540D01*
X275079Y1149092D01*
Y1144014D01*
X272540Y1141474D01*
X264922D01*
X280157Y1136396D02*
X285235D01*
X282696D01*
Y1151631D01*
X280157Y1149092D01*
X303010Y1151631D02*
X292853D01*
Y1144014D01*
X297931Y1146553D01*
X300471D01*
X303010Y1144014D01*
Y1138935D01*
X300471Y1136396D01*
X295392D01*
X292853Y1138935D01*
X273555Y819907D02*
X263398D01*
Y812290D01*
X268476D01*
X263398D01*
Y804672D01*
X278633D02*
X283711D01*
X281172D01*
Y819907D01*
X278633Y817368D01*
X268478Y937763D02*
Y922528D01*
X276096D01*
X278635Y925067D01*
Y935224D01*
X276096Y937763D01*
X268478D01*
X283713Y922528D02*
X288791D01*
X286252D01*
Y937763D01*
X283713Y935224D01*
X370075Y500633D02*
Y510790D01*
X367536Y513329D01*
X362457D01*
X359918Y510790D01*
Y500633D01*
X362457Y498094D01*
X367536D01*
X364996Y503172D02*
X370075Y498094D01*
X367536D02*
X370075Y500633D01*
X382771Y498094D02*
Y513329D01*
X375153Y505712D01*
X385310D01*
X268732Y387604D02*
Y402839D01*
X276350D01*
X278889Y400300D01*
Y395221D01*
X276350Y392682D01*
X268732D01*
X294124Y387604D02*
X283967D01*
X294124Y397761D01*
Y400300D01*
X291585Y402839D01*
X286506D01*
X283967Y400300D01*
X406400Y774949D02*
Y762253D01*
X408939Y759714D01*
X414017D01*
X416557Y762253D01*
Y774949D01*
X421635Y759714D02*
X426713D01*
X424174D01*
Y774949D01*
X421635Y772410D01*
X267462Y509524D02*
Y524759D01*
X275079D01*
X277619Y522220D01*
Y517141D01*
X275079Y514602D01*
X267462D01*
X282697Y509524D02*
X287775D01*
X285236D01*
Y524759D01*
X282697Y522220D01*
X856488Y774949D02*
Y762253D01*
X859027Y759714D01*
X864106D01*
X866645Y762253D01*
Y774949D01*
X871723Y772410D02*
X874262Y774949D01*
X879341D01*
X881880Y772410D01*
Y769871D01*
X879341Y767331D01*
X876801D01*
X879341D01*
X881880Y764792D01*
Y762253D01*
X879341Y759714D01*
X874262D01*
X871723Y762253D01*
X658460Y644398D02*
Y659633D01*
X666078D01*
X668617Y657094D01*
Y652016D01*
X666078Y649476D01*
X658460D01*
X663539D02*
X668617Y644398D01*
X673695Y657094D02*
X676235Y659633D01*
X681313D01*
X683852Y657094D01*
Y654555D01*
X681313Y652016D01*
X678774D01*
X681313D01*
X683852Y649476D01*
Y646937D01*
X681313Y644398D01*
X676235D01*
X673695Y646937D01*
X432631Y644398D02*
Y659633D01*
X440249D01*
X442788Y657094D01*
Y652016D01*
X440249Y649476D01*
X432631D01*
X437710D02*
X442788Y644398D01*
X447866D02*
X452945D01*
X450406D01*
Y659633D01*
X447866Y657094D01*
X884289Y644398D02*
Y659633D01*
X891907D01*
X894446Y657094D01*
Y652016D01*
X891907Y649476D01*
X884289D01*
X889368D02*
X894446Y644398D01*
X909681Y659633D02*
X899525D01*
Y652016D01*
X904603Y654555D01*
X907142D01*
X909681Y652016D01*
Y646937D01*
X907142Y644398D01*
X902064D01*
X899525Y646937D01*
X376174Y644398D02*
Y659633D01*
X383792D01*
X386331Y657094D01*
Y652016D01*
X383792Y649476D01*
X376174D01*
X381252D02*
X386331Y644398D01*
X391409Y659633D02*
X401566D01*
Y657094D01*
X391409Y646937D01*
Y644398D01*
X827832D02*
Y659633D01*
X835450D01*
X837989Y657094D01*
Y652016D01*
X835450Y649476D01*
X827832D01*
X832911D02*
X837989Y644398D01*
X843067D02*
X848146D01*
X845606D01*
Y659633D01*
X843067Y657094D01*
X855763Y644398D02*
X860841D01*
X858302D01*
Y659633D01*
X855763Y657094D01*
X602003Y644398D02*
Y659633D01*
X609621D01*
X612160Y657094D01*
Y652016D01*
X609621Y649476D01*
X602003D01*
X607081D02*
X612160Y644398D01*
X617238Y646937D02*
X619777Y644398D01*
X624856D01*
X627395Y646937D01*
Y657094D01*
X624856Y659633D01*
X619777D01*
X617238Y657094D01*
Y654555D01*
X619777Y652016D01*
X627395D01*
X545546Y644398D02*
Y659633D01*
X553163D01*
X555703Y657094D01*
Y652016D01*
X553163Y649476D01*
X545546D01*
X550624D02*
X555703Y644398D01*
X560781D02*
X565859D01*
X563320D01*
Y659633D01*
X560781Y657094D01*
X573477D02*
X576016Y659633D01*
X581094D01*
X583633Y657094D01*
Y654555D01*
X581094Y652016D01*
X578555D01*
X581094D01*
X583633Y649476D01*
Y646937D01*
X581094Y644398D01*
X576016D01*
X573477Y646937D01*
X771375Y644398D02*
Y659633D01*
X778992D01*
X781532Y657094D01*
Y652016D01*
X778992Y649476D01*
X771375D01*
X776453D02*
X781532Y644398D01*
X786610D02*
X791688D01*
X789149D01*
Y659633D01*
X786610Y657094D01*
X809463Y659633D02*
X799306D01*
Y652016D01*
X804384Y654555D01*
X806923D01*
X809463Y652016D01*
Y646937D01*
X806923Y644398D01*
X801845D01*
X799306Y646937D01*
X997204Y644398D02*
Y659633D01*
X1004821D01*
X1007361Y657094D01*
Y652016D01*
X1004821Y649476D01*
X997204D01*
X1002282D02*
X1007361Y644398D01*
X1012439D02*
X1017517D01*
X1014978D01*
Y659633D01*
X1012439Y657094D01*
X1025135Y659633D02*
X1035292D01*
Y657094D01*
X1025135Y646937D01*
Y644398D01*
X489089D02*
Y659633D01*
X496706D01*
X499245Y657094D01*
Y652016D01*
X496706Y649476D01*
X489089D01*
X494167D02*
X499245Y644398D01*
X504324D02*
X509402D01*
X506863D01*
Y659633D01*
X504324Y657094D01*
X517020Y646937D02*
X519559Y644398D01*
X524637D01*
X527176Y646937D01*
Y657094D01*
X524637Y659633D01*
X519559D01*
X517020Y657094D01*
Y654555D01*
X519559Y652016D01*
X527176D01*
X714918Y644398D02*
Y659633D01*
X722535D01*
X725074Y657094D01*
Y652016D01*
X722535Y649476D01*
X714918D01*
X719996D02*
X725074Y644398D01*
X740309D02*
X730153D01*
X740309Y654555D01*
Y657094D01*
X737770Y659633D01*
X732692D01*
X730153Y657094D01*
X745388Y644398D02*
X750466D01*
X747927D01*
Y659633D01*
X745388Y657094D01*
X940747Y644398D02*
Y659633D01*
X948364D01*
X950903Y657094D01*
Y652016D01*
X948364Y649476D01*
X940747D01*
X945825D02*
X950903Y644398D01*
X966139D02*
X955982D01*
X966139Y654555D01*
Y657094D01*
X963599Y659633D01*
X958521D01*
X955982Y657094D01*
X971217D02*
X973756Y659633D01*
X978834D01*
X981374Y657094D01*
Y654555D01*
X978834Y652016D01*
X976295D01*
X978834D01*
X981374Y649476D01*
Y646937D01*
X978834Y644398D01*
X973756D01*
X971217Y646937D01*
X356942Y368808D02*
Y384043D01*
X364560D01*
X367099Y381504D01*
Y376426D01*
X364560Y373886D01*
X356942D01*
X372178Y381504D02*
X374717Y384043D01*
X379795D01*
X382334Y381504D01*
Y378965D01*
X379795Y376426D01*
X377256D01*
X379795D01*
X382334Y373886D01*
Y371347D01*
X379795Y368808D01*
X374717D01*
X372178Y371347D01*
X470517Y368808D02*
Y384043D01*
X478134D01*
X480673Y381504D01*
Y376426D01*
X478134Y373886D01*
X470517D01*
X493369Y368808D02*
Y384043D01*
X485752Y376426D01*
X495909D01*
X697665Y368808D02*
Y384043D01*
X705283D01*
X707822Y381504D01*
Y376426D01*
X705283Y373886D01*
X697665D01*
X723057Y384043D02*
X717979Y381504D01*
X712900Y376426D01*
Y371347D01*
X715440Y368808D01*
X720518D01*
X723057Y371347D01*
Y373886D01*
X720518Y376426D01*
X712900D01*
X354584Y1152398D02*
Y1167633D01*
X362201D01*
X364741Y1165094D01*
Y1160015D01*
X362201Y1157476D01*
X354584D01*
X369819Y1154937D02*
X372358Y1152398D01*
X377437D01*
X379976Y1154937D01*
Y1165094D01*
X377437Y1167633D01*
X372358D01*
X369819Y1165094D01*
Y1162555D01*
X372358Y1160015D01*
X379976D01*
X466090Y1152398D02*
Y1167633D01*
X473708D01*
X476247Y1165094D01*
Y1160015D01*
X473708Y1157476D01*
X466090D01*
X481325Y1152398D02*
X486403D01*
X483864D01*
Y1167633D01*
X481325Y1165094D01*
X494021D02*
X496560Y1167633D01*
X501638D01*
X504178Y1165094D01*
Y1154937D01*
X501638Y1152398D01*
X496560D01*
X494021Y1154937D01*
Y1165094D01*
X577596Y1152398D02*
Y1167633D01*
X585214D01*
X587753Y1165094D01*
Y1160015D01*
X585214Y1157476D01*
X577596D01*
X592831Y1152398D02*
X597909D01*
X595370D01*
Y1167633D01*
X592831Y1165094D01*
X605527Y1152398D02*
X610605D01*
X608066D01*
Y1167633D01*
X605527Y1165094D01*
X689102Y1152398D02*
Y1167633D01*
X696720D01*
X699259Y1165094D01*
Y1160015D01*
X696720Y1157476D01*
X689102D01*
X704337Y1152398D02*
X709415D01*
X706876D01*
Y1167633D01*
X704337Y1165094D01*
X727190Y1152398D02*
X717033D01*
X727190Y1162555D01*
Y1165094D01*
X724650Y1167633D01*
X719572D01*
X717033Y1165094D01*
X928370Y889249D02*
Y876553D01*
X930909Y874014D01*
X935987D01*
X938527Y876553D01*
Y889249D01*
X943605Y874014D02*
X948683D01*
X946144D01*
Y889249D01*
X943605Y886710D01*
X966458Y874014D02*
X956301D01*
X966458Y884171D01*
Y886710D01*
X963919Y889249D01*
X958840D01*
X956301Y886710D01*
X700278Y889249D02*
Y876553D01*
X702817Y874014D01*
X707896D01*
X710435Y876553D01*
Y889249D01*
X715513Y874014D02*
X720591D01*
X718052D01*
Y889249D01*
X715513Y886710D01*
X728209Y874014D02*
X733287D01*
X730748D01*
Y889249D01*
X728209Y886710D01*
X472186Y889249D02*
Y876553D01*
X474725Y874014D01*
X479804D01*
X482343Y876553D01*
Y889249D01*
X487421Y874014D02*
X492499D01*
X489960D01*
Y889249D01*
X487421Y886710D01*
X500117D02*
X502656Y889249D01*
X507734D01*
X510274Y886710D01*
Y876553D01*
X507734Y874014D01*
X502656D01*
X500117Y876553D01*
Y886710D01*
X969010Y774949D02*
Y762253D01*
X971549Y759714D01*
X976628D01*
X979167Y762253D01*
Y774949D01*
X984245Y762253D02*
X986784Y759714D01*
X991863D01*
X994402Y762253D01*
Y772410D01*
X991863Y774949D01*
X986784D01*
X984245Y772410D01*
Y769871D01*
X986784Y767331D01*
X994402D01*
X743966Y774949D02*
Y762253D01*
X746505Y759714D01*
X751583D01*
X754123Y762253D01*
Y774949D01*
X759201Y772410D02*
X761740Y774949D01*
X766819D01*
X769358Y772410D01*
Y769871D01*
X766819Y767331D01*
X769358Y764792D01*
Y762253D01*
X766819Y759714D01*
X761740D01*
X759201Y762253D01*
Y764792D01*
X761740Y767331D01*
X759201Y769871D01*
Y772410D01*
X761740Y767331D02*
X766819D01*
X814324Y889249D02*
Y876553D01*
X816863Y874014D01*
X821942D01*
X824481Y876553D01*
Y889249D01*
X839716D02*
X834637Y886710D01*
X829559Y881631D01*
Y876553D01*
X832098Y874014D01*
X837177D01*
X839716Y876553D01*
Y879092D01*
X837177Y881631D01*
X829559D01*
X586232Y889249D02*
Y876553D01*
X588771Y874014D01*
X593849D01*
X596389Y876553D01*
Y889249D01*
X611624D02*
X601467D01*
Y881631D01*
X606545Y884171D01*
X609085D01*
X611624Y881631D01*
Y876553D01*
X609085Y874014D01*
X604006D01*
X601467Y876553D01*
X358140Y889249D02*
Y876553D01*
X360679Y874014D01*
X365757D01*
X368297Y876553D01*
Y889249D01*
X380993Y874014D02*
Y889249D01*
X373375Y881631D01*
X383532D01*
X631444Y774949D02*
Y762253D01*
X633983Y759714D01*
X639062D01*
X641601Y762253D01*
Y774949D01*
X656836Y759714D02*
X646679D01*
X656836Y769871D01*
Y772410D01*
X654297Y774949D01*
X649218D01*
X646679Y772410D01*
X940420Y500633D02*
Y510790D01*
X937881Y513329D01*
X932803D01*
X930263Y510790D01*
Y500633D01*
X932803Y498094D01*
X937881D01*
X935342Y503172D02*
X940420Y498094D01*
X937881D02*
X940420Y500633D01*
X945498Y498094D02*
X950577D01*
X948038D01*
Y513329D01*
X945498Y510790D01*
X968351Y498094D02*
X958194D01*
X968351Y508251D01*
Y510790D01*
X965812Y513329D01*
X960733D01*
X958194Y510790D01*
X712282Y500633D02*
Y510790D01*
X709743Y513329D01*
X704664D01*
X702125Y510790D01*
Y500633D01*
X704664Y498094D01*
X709743D01*
X707204Y503172D02*
X712282Y498094D01*
X709743D02*
X712282Y500633D01*
X717360Y498094D02*
X722439D01*
X719899D01*
Y513329D01*
X717360Y510790D01*
X730056Y498094D02*
X735135D01*
X732595D01*
Y513329D01*
X730056Y510790D01*
X484144Y500633D02*
Y510790D01*
X481605Y513329D01*
X476526D01*
X473987Y510790D01*
Y500633D01*
X476526Y498094D01*
X481605D01*
X479065Y503172D02*
X484144Y498094D01*
X481605D02*
X484144Y500633D01*
X489222Y498094D02*
X494300D01*
X491761D01*
Y513329D01*
X489222Y510790D01*
X501918D02*
X504457Y513329D01*
X509536D01*
X512075Y510790D01*
Y500633D01*
X509536Y498094D01*
X504457D01*
X501918Y500633D01*
Y510790D01*
X997455Y500633D02*
Y510790D01*
X994915Y513329D01*
X989837D01*
X987298Y510790D01*
Y500633D01*
X989837Y498094D01*
X994915D01*
X992376Y503172D02*
X997455Y498094D01*
X994915D02*
X997455Y500633D01*
X1002533D02*
X1005072Y498094D01*
X1010151D01*
X1012690Y500633D01*
Y510790D01*
X1010151Y513329D01*
X1005072D01*
X1002533Y510790D01*
Y508251D01*
X1005072Y505712D01*
X1012690D01*
X769316Y500633D02*
Y510790D01*
X766777Y513329D01*
X761699D01*
X759160Y510790D01*
Y500633D01*
X761699Y498094D01*
X766777D01*
X764238Y503172D02*
X769316Y498094D01*
X766777D02*
X769316Y500633D01*
X774395Y510790D02*
X776934Y513329D01*
X782012D01*
X784551Y510790D01*
Y508251D01*
X782012Y505712D01*
X784551Y503172D01*
Y500633D01*
X782012Y498094D01*
X776934D01*
X774395Y500633D01*
Y503172D01*
X776934Y505712D01*
X774395Y508251D01*
Y510790D01*
X776934Y505712D02*
X782012D01*
X541178Y500633D02*
Y510790D01*
X538639Y513329D01*
X533561D01*
X531022Y510790D01*
Y500633D01*
X533561Y498094D01*
X538639D01*
X536100Y503172D02*
X541178Y498094D01*
X538639D02*
X541178Y500633D01*
X546257Y513329D02*
X556413D01*
Y510790D01*
X546257Y500633D01*
Y498094D01*
X826351Y500633D02*
Y510790D01*
X823812Y513329D01*
X818733D01*
X816194Y510790D01*
Y500633D01*
X818733Y498094D01*
X823812D01*
X821273Y503172D02*
X826351Y498094D01*
X823812D02*
X826351Y500633D01*
X841586Y513329D02*
X836508Y510790D01*
X831429Y505712D01*
Y500633D01*
X833969Y498094D01*
X839047D01*
X841586Y500633D01*
Y503172D01*
X839047Y505712D01*
X831429D01*
X598213Y500633D02*
Y510790D01*
X595674Y513329D01*
X590595D01*
X588056Y510790D01*
Y500633D01*
X590595Y498094D01*
X595674D01*
X593134Y503172D02*
X598213Y498094D01*
X595674D02*
X598213Y500633D01*
X613448Y513329D02*
X603291D01*
Y505712D01*
X608369Y508251D01*
X610909D01*
X613448Y505712D01*
Y500633D01*
X610909Y498094D01*
X605830D01*
X603291Y500633D01*
X883385D02*
Y510790D01*
X880846Y513329D01*
X875768D01*
X873229Y510790D01*
Y500633D01*
X875768Y498094D01*
X880846D01*
X878307Y503172D02*
X883385Y498094D01*
X880846D02*
X883385Y500633D01*
X888464Y510790D02*
X891003Y513329D01*
X896081D01*
X898621Y510790D01*
Y508251D01*
X896081Y505712D01*
X893542D01*
X896081D01*
X898621Y503172D01*
Y500633D01*
X896081Y498094D01*
X891003D01*
X888464Y500633D01*
X655247D02*
Y510790D01*
X652708Y513329D01*
X647630D01*
X645091Y510790D01*
Y500633D01*
X647630Y498094D01*
X652708D01*
X650169Y503172D02*
X655247Y498094D01*
X652708D02*
X655247Y500633D01*
X670482Y498094D02*
X660326D01*
X670482Y508251D01*
Y510790D01*
X667943Y513329D01*
X662865D01*
X660326Y510790D01*
X427109Y500633D02*
Y510790D01*
X424570Y513329D01*
X419492D01*
X416953Y510790D01*
Y500633D01*
X419492Y498094D01*
X424570D01*
X422031Y503172D02*
X427109Y498094D01*
X424570D02*
X427109Y500633D01*
X432188Y498094D02*
X437266D01*
X434727D01*
Y513329D01*
X432188Y510790D01*
X912114Y1152398D02*
Y1167633D01*
X919732D01*
X922271Y1165094D01*
Y1160015D01*
X919732Y1157476D01*
X912114D01*
X927349Y1152398D02*
X932427D01*
X929888D01*
Y1167633D01*
X927349Y1165094D01*
X947663Y1152398D02*
Y1167633D01*
X940045Y1160015D01*
X950202D01*
X800608Y1152398D02*
Y1167633D01*
X808225D01*
X810765Y1165094D01*
Y1160015D01*
X808225Y1157476D01*
X800608D01*
X815843Y1152398D02*
X820921D01*
X818382D01*
Y1167633D01*
X815843Y1165094D01*
X828539D02*
X831078Y1167633D01*
X836156D01*
X838696Y1165094D01*
Y1162555D01*
X836156Y1160015D01*
X833617D01*
X836156D01*
X838696Y1157476D01*
Y1154937D01*
X836156Y1152398D01*
X831078D01*
X828539Y1154937D01*
X924814Y368808D02*
Y384043D01*
X932431D01*
X934971Y381504D01*
Y376426D01*
X932431Y373886D01*
X924814D01*
X940049Y381504D02*
X942588Y384043D01*
X947666D01*
X950206Y381504D01*
Y378965D01*
X947666Y376426D01*
X950206Y373886D01*
Y371347D01*
X947666Y368808D01*
X942588D01*
X940049Y371347D01*
Y373886D01*
X942588Y376426D01*
X940049Y378965D01*
Y381504D01*
X942588Y376426D02*
X947666D01*
X811240Y368808D02*
Y384043D01*
X818857D01*
X821396Y381504D01*
Y376426D01*
X818857Y373886D01*
X811240D01*
X826475Y384043D02*
X836631D01*
Y381504D01*
X826475Y371347D01*
Y368808D01*
D14*
X276860Y847410D02*
D03*
M02*
