G04*
G04 #@! TF.GenerationSoftware,Altium Limited,Altium Designer,22.4.2 (48)*
G04*
G04 Layer_Color=16711935*
%FSLAX44Y44*%
%MOMM*%
G71*
G04*
G04 #@! TF.SameCoordinates,69224164-BCDE-4545-B53B-617D96EECF20*
G04*
G04*
G04 #@! TF.FilePolarity,Positive*
G04*
G01*
G75*
%ADD10C,0.2000*%
%ADD12C,0.1270*%
D10*
X614047Y304800D02*
G03*
X614047Y304800I-1000J0D01*
G01*
X294370Y1097280D02*
G03*
X294370Y1097280I-1000J0D01*
G01*
X388350Y378580D02*
G03*
X388350Y378580I-1000J0D01*
G01*
X323580Y300990D02*
G03*
X323580Y300990I-1000J0D01*
G01*
X322310Y422910D02*
G03*
X322310Y422910I-1000J0D01*
G01*
X386898Y304800D02*
G03*
X386898Y304800I-1000J0D01*
G01*
X500473D02*
G03*
X500473Y304800I-1000J0D01*
G01*
X727621D02*
G03*
X727621Y304800I-1000J0D01*
G01*
X384540Y1088390D02*
G03*
X384540Y1088390I-1000J0D01*
G01*
X496046D02*
G03*
X496046Y1088390I-1000J0D01*
G01*
X607552D02*
G03*
X607552Y1088390I-1000J0D01*
G01*
X719058D02*
G03*
X719058Y1088390I-1000J0D01*
G01*
X673523Y378580D02*
G03*
X673523Y378580I-1000J0D01*
G01*
X445384D02*
G03*
X445384Y378580I-1000J0D01*
G01*
X901661D02*
G03*
X901661Y378580I-1000J0D01*
G01*
X841196Y304800D02*
G03*
X841196Y304800I-1000J0D01*
G01*
X954770D02*
G03*
X954770Y304800I-1000J0D01*
G01*
X844626Y378580D02*
G03*
X844626Y378580I-1000J0D01*
G01*
X616488D02*
G03*
X616488Y378580I-1000J0D01*
G01*
X830564Y1088390D02*
G03*
X830564Y1088390I-1000J0D01*
G01*
X559454Y378580D02*
G03*
X559454Y378580I-1000J0D01*
G01*
X942070Y1088390D02*
G03*
X942070Y1088390I-1000J0D01*
G01*
X787592Y378580D02*
G03*
X787592Y378580I-1000J0D01*
G01*
X1015730D02*
G03*
X1015730Y378580I-1000J0D01*
G01*
X502419D02*
G03*
X502419Y378580I-1000J0D01*
G01*
X730557D02*
G03*
X730557Y378580I-1000J0D01*
G01*
X958695D02*
G03*
X958695Y378580I-1000J0D01*
G01*
D12*
X587647Y276500D02*
Y358500D01*
Y276500D02*
X689247D01*
Y358500D01*
X587647D02*
X689247D01*
X265070Y1122680D02*
X347070D01*
X265070Y1021080D02*
Y1122680D01*
Y1021080D02*
X347070D01*
Y1122680D01*
X263660Y550780D02*
X353560D01*
Y792880D01*
X263660D02*
X353560D01*
X263660Y550780D02*
Y792880D01*
X360175Y386080D02*
Y487680D01*
X402125D01*
Y386080D02*
Y487680D01*
X360175Y386080D02*
X402125D01*
X268880Y275590D02*
X350880D01*
Y377190D01*
X268880D02*
X350880D01*
X268880Y275590D02*
Y377190D01*
X267610Y397510D02*
X349610D01*
Y499110D01*
X267610D02*
X349610D01*
X267610Y397510D02*
Y499110D01*
X360499Y276500D02*
Y358500D01*
Y276500D02*
X462099D01*
Y358500D01*
X360499D02*
X462099D01*
X474073Y276500D02*
Y358500D01*
Y276500D02*
X575673D01*
Y358500D01*
X474073D02*
X575673D01*
X701221Y276500D02*
Y358500D01*
Y276500D02*
X802821D01*
Y358500D01*
X701221D02*
X802821D01*
X358140Y1060090D02*
Y1142090D01*
Y1060090D02*
X459740D01*
Y1142090D01*
X358140D02*
X459740D01*
X469646Y1060090D02*
Y1142090D01*
Y1060090D02*
X571246D01*
Y1142090D01*
X469646D02*
X571246D01*
X581152Y1060090D02*
Y1142090D01*
Y1060090D02*
X682752D01*
Y1142090D01*
X581152D02*
X682752D01*
X692658Y1060090D02*
Y1142090D01*
Y1060090D02*
X794258D01*
Y1142090D01*
X692658D02*
X794258D01*
X645348Y386080D02*
X687298D01*
Y487680D01*
X645348D02*
X687298D01*
X645348Y386080D02*
Y487680D01*
X417210Y386080D02*
X459159D01*
Y487680D01*
X417210D02*
X459159D01*
X417210Y386080D02*
Y487680D01*
X873486Y386080D02*
X915436D01*
Y487680D01*
X873486D02*
X915436D01*
X873486Y386080D02*
Y487680D01*
X814795Y276500D02*
Y358500D01*
Y276500D02*
X916395D01*
Y358500D01*
X814795D02*
X916395D01*
X928370Y276500D02*
Y358500D01*
Y276500D02*
X1029970D01*
Y358500D01*
X928370D02*
X1029970D01*
X816451Y386080D02*
X858401D01*
Y487680D01*
X816451D02*
X858401D01*
X816451Y386080D02*
Y487680D01*
X588313Y386080D02*
X630263D01*
Y487680D01*
X588313D02*
X630263D01*
X588313Y386080D02*
Y487680D01*
X804164Y1060090D02*
Y1142090D01*
Y1060090D02*
X905764D01*
Y1142090D01*
X804164D02*
X905764D01*
X531279Y386080D02*
X573229D01*
Y487680D01*
X531279D02*
X573229D01*
X531279Y386080D02*
Y487680D01*
X915670Y1060090D02*
Y1142090D01*
Y1060090D02*
X1017270D01*
Y1142090D01*
X915670D02*
X1017270D01*
X759417Y386080D02*
X801367D01*
Y487680D01*
X759417D02*
X801367D01*
X759417Y386080D02*
Y487680D01*
X987555Y386080D02*
X1029505D01*
Y487680D01*
X987555D02*
X1029505D01*
X987555Y386080D02*
Y487680D01*
X474244Y386080D02*
X516194D01*
Y487680D01*
X474244D02*
X516194D01*
X474244Y386080D02*
Y487680D01*
X702382Y386080D02*
X744332D01*
Y487680D01*
X702382D02*
X744332D01*
X702382Y386080D02*
Y487680D01*
X930520Y386080D02*
X972470D01*
Y487680D01*
X930520D02*
X972470D01*
X930520Y386080D02*
Y487680D01*
M02*
