G04*
G04 #@! TF.GenerationSoftware,Altium Limited,Altium Designer,22.4.2 (48)*
G04*
G04 Layer_Physical_Order=1*
G04 Layer_Color=255*
%FSLAX44Y44*%
%MOMM*%
G71*
G04*
G04 #@! TF.SameCoordinates,69224164-BCDE-4545-B53B-617D96EECF20*
G04*
G04*
G04 #@! TF.FilePolarity,Positive*
G04*
G01*
G75*
%ADD28C,1.5000*%
%ADD29C,1.0000*%
%ADD30C,5.0000*%
%ADD31C,1.6500*%
%ADD32R,1.6500X1.6500*%
%ADD33C,1.3500*%
%ADD34R,1.3500X1.3500*%
%ADD35C,1.4000*%
%ADD36O,1.3208X2.6416*%
%ADD37R,1.6500X1.6500*%
%ADD38C,1.9800*%
%ADD39C,1.5000*%
%ADD40R,1.5000X1.5000*%
%ADD41R,1.9950X1.9950*%
%ADD42C,1.9950*%
G36*
X1013992Y1188931D02*
X1010940Y1185879D01*
Y1177210D01*
X1043940D01*
Y1172210D01*
X1048940D01*
Y1139210D01*
X1057609D01*
X1060770Y1142371D01*
X1080770Y1134087D01*
Y288313D01*
X1061419Y279380D01*
X1060770Y279380D01*
X1052750D01*
Y246380D01*
X1047750D01*
Y241380D01*
X1014750D01*
Y232711D01*
X1015371Y232090D01*
X1007087Y212090D01*
X276883D01*
X268599Y232090D01*
X271760Y235251D01*
Y243920D01*
X238760D01*
Y248920D01*
X233760D01*
Y281920D01*
X225091D01*
X220660Y277489D01*
X200660Y285773D01*
X200660Y1132817D01*
X220660Y1141101D01*
X230171Y1131590D01*
X238840D01*
Y1164590D01*
X243840D01*
Y1169590D01*
X276840D01*
Y1178259D01*
X268565Y1186534D01*
X276822Y1206561D01*
X1005681Y1208905D01*
X1013992Y1188931D01*
D02*
G37*
%LPC*%
G36*
X1038940Y1167210D02*
X1010940D01*
Y1158541D01*
X1030271Y1139210D01*
X1038940D01*
Y1167210D01*
D02*
G37*
G36*
X276840Y1159590D02*
X248840D01*
Y1131590D01*
X257509D01*
X276840Y1150921D01*
Y1159590D01*
D02*
G37*
G36*
X957320Y1117340D02*
Y1117340D01*
X924820D01*
Y1084840D01*
X957320D01*
Y1084840D01*
X963669Y1091018D01*
X963669Y1091018D01*
Y1091018D01*
X977320Y1092659D01*
X979137Y1090842D01*
Y1090841D01*
X979539Y1090440D01*
X985139Y1084840D01*
X998601D01*
X1008120Y1094359D01*
Y1107821D01*
X998601Y1117340D01*
X985139D01*
X979539Y1111740D01*
X979137Y1111339D01*
Y1111339D01*
X977320Y1109521D01*
X963669Y1111162D01*
Y1111162D01*
X963669Y1111162D01*
X957320Y1117340D01*
D02*
G37*
G36*
X845814D02*
Y1117340D01*
X813314D01*
Y1084840D01*
X845814D01*
Y1084840D01*
X852163Y1091018D01*
X852163Y1091018D01*
Y1091018D01*
X865814Y1092659D01*
X867632Y1090842D01*
Y1090841D01*
X868033Y1090440D01*
X873633Y1084840D01*
X887095D01*
X896614Y1094359D01*
Y1107821D01*
X887095Y1117340D01*
X873633D01*
X868033Y1111740D01*
X867632Y1111339D01*
Y1111339D01*
X865814Y1109521D01*
X852163Y1111162D01*
Y1111162D01*
X852163Y1111162D01*
X845814Y1117340D01*
D02*
G37*
G36*
X734308D02*
Y1117340D01*
X701808D01*
Y1084840D01*
X734308D01*
Y1084840D01*
X740657Y1091018D01*
X740657Y1091018D01*
Y1091018D01*
X754308Y1092659D01*
X756125Y1090842D01*
Y1090842D01*
X756527Y1090440D01*
X762127Y1084840D01*
X775589D01*
X785108Y1094359D01*
X785108Y1100897D01*
Y1107821D01*
X775589Y1117340D01*
X762127D01*
X756527Y1111740D01*
X756125Y1111339D01*
Y1111339D01*
X754308Y1109521D01*
X740657Y1111162D01*
Y1111162D01*
X740657Y1111162D01*
X734308Y1117340D01*
D02*
G37*
G36*
X622802D02*
Y1117340D01*
X590302D01*
Y1084840D01*
X622802D01*
Y1084840D01*
X629151Y1091018D01*
X629151Y1091018D01*
Y1091018D01*
X642802Y1092659D01*
X644620Y1090842D01*
Y1090842D01*
X645021Y1090440D01*
X650621Y1084840D01*
X664083D01*
X673602Y1094359D01*
X673602Y1100897D01*
Y1107821D01*
X664083Y1117340D01*
X650621D01*
X645021Y1111740D01*
X644620Y1111339D01*
Y1111339D01*
X642802Y1109521D01*
X629151Y1111162D01*
Y1111162D01*
X629151Y1111162D01*
X622802Y1117340D01*
D02*
G37*
G36*
X511296D02*
Y1117340D01*
X478796D01*
Y1084840D01*
X511296D01*
Y1084840D01*
X517645Y1091018D01*
X517645Y1091018D01*
Y1091018D01*
X531296Y1092659D01*
X533114Y1090842D01*
Y1090842D01*
X533515Y1090440D01*
X539115Y1084840D01*
X552577D01*
X562096Y1094359D01*
X562096Y1100897D01*
Y1107821D01*
X552577Y1117340D01*
X539115D01*
X533515Y1111740D01*
X533114Y1111339D01*
Y1111339D01*
X531296Y1109521D01*
X517645Y1111162D01*
Y1111162D01*
X517645Y1111162D01*
X511296Y1117340D01*
D02*
G37*
G36*
X399790D02*
Y1117340D01*
X367290D01*
Y1084840D01*
X399790D01*
Y1084840D01*
X406139Y1091018D01*
X406139Y1091018D01*
Y1091018D01*
X419790Y1092659D01*
X421608Y1090842D01*
Y1090842D01*
X422009Y1090440D01*
X427609Y1084840D01*
X441071D01*
X450590Y1094359D01*
X450590Y1100897D01*
Y1107821D01*
X441071Y1117340D01*
X427609D01*
X422009Y1111740D01*
X421608Y1111339D01*
Y1111339D01*
X419790Y1109521D01*
X406139Y1111162D01*
Y1111162D01*
X406139Y1111162D01*
X399790Y1117340D01*
D02*
G37*
G36*
X322320Y1113530D02*
X289820D01*
Y1081030D01*
X289820D01*
X295998Y1074681D01*
X295998Y1074681D01*
X295998D01*
X297639Y1061030D01*
X295821Y1059212D01*
X295821D01*
X295420Y1058811D01*
X289820Y1053211D01*
Y1051480D01*
X306070D01*
X322320D01*
Y1053211D01*
X317697Y1057834D01*
X314501Y1061030D01*
X316142Y1074681D01*
X316142D01*
X316142Y1074681D01*
X322320Y1081030D01*
X322320D01*
Y1113530D01*
D02*
G37*
G36*
X322320Y1041480D02*
X311070D01*
Y1030230D01*
X312801D01*
X317697Y1035126D01*
X322320Y1039749D01*
Y1041480D01*
D02*
G37*
G36*
X301070D02*
X289820D01*
Y1039749D01*
X299339Y1030230D01*
X301070D01*
Y1041480D01*
D02*
G37*
G36*
X536851Y1020840D02*
X532638Y1016627D01*
X528923Y1012912D01*
X522107Y1012153D01*
X508202Y1012386D01*
X505502Y1015086D01*
X505502Y1015086D01*
X504777Y1015810D01*
X501017Y1019570D01*
X488591D01*
X479804Y1010783D01*
X479804Y1009470D01*
X474580Y1004245D01*
X463317Y1000225D01*
X449505Y1003729D01*
X445034Y1008199D01*
Y1009513D01*
X441603Y1012945D01*
X436247Y1018300D01*
X423821D01*
X418645Y1013124D01*
X415504Y1009983D01*
X399937Y1010501D01*
X395656Y1010643D01*
X395504Y1010783D01*
X390598Y1015689D01*
X390598Y1015689D01*
X390344Y1015944D01*
X386717Y1019570D01*
X374291D01*
X365504Y1010783D01*
Y1009470D01*
X354794Y998760D01*
X352138Y992348D01*
X343985Y984576D01*
X334671Y978680D01*
X330673Y978680D01*
X308300D01*
Y949343D01*
X308300Y949180D01*
X310817Y939694D01*
X303962Y928141D01*
X283280Y921910D01*
X281860D01*
Y906410D01*
Y890910D01*
X283280D01*
X288343Y895973D01*
X292360Y899990D01*
X292562Y900867D01*
X293519Y903810D01*
X302832Y906122D01*
X312019Y908402D01*
X313751Y907096D01*
X312360Y908487D01*
X312360D01*
X317637Y903210D01*
X330063D01*
X330673Y903820D01*
X350673Y895535D01*
Y895096D01*
X354794Y885146D01*
X368199Y871742D01*
Y862965D01*
X366463Y858774D01*
Y845566D01*
X371093Y834389D01*
X382270Y829759D01*
X390893Y823997D01*
Y804143D01*
X382270Y798381D01*
X371093Y793751D01*
X366463Y782574D01*
Y769366D01*
X368199Y765174D01*
Y720598D01*
X372320Y710648D01*
X386487Y696482D01*
Y643650D01*
X378597D01*
X369810Y634863D01*
Y633549D01*
X358350Y622090D01*
X354229Y612140D01*
Y553834D01*
X343253Y544631D01*
X326510Y556693D01*
Y556718D01*
X326510Y556718D01*
X326510Y556847D01*
Y566744D01*
X316024Y577230D01*
X301196D01*
X290710Y566744D01*
Y551915D01*
X301196Y541430D01*
X311093Y541430D01*
X311221D01*
X311221D01*
X315446Y541430D01*
X329179Y526879D01*
X298751Y496450D01*
X294629Y486500D01*
Y482710D01*
X292360Y480441D01*
Y466979D01*
X296983Y462356D01*
X300179Y459160D01*
X298538Y445509D01*
X298538D01*
X298538Y445509D01*
X292360Y439160D01*
X292360D01*
Y406660D01*
X324860D01*
Y439160D01*
X324860D01*
X318682Y445509D01*
X318682Y445509D01*
X318682D01*
X317041Y459160D01*
X318859Y460978D01*
X318859D01*
X319260Y461379D01*
X324860Y466979D01*
Y478415D01*
X337455Y489478D01*
X355753Y481715D01*
Y454406D01*
X359874Y444456D01*
X369375Y434955D01*
Y429435D01*
Y393505D01*
X405325D01*
Y407055D01*
X425325Y416268D01*
X426410Y415341D01*
Y393505D01*
X462360D01*
Y407055D01*
X482360Y416268D01*
X483444Y415340D01*
Y393505D01*
X519394D01*
Y407055D01*
X539394Y416268D01*
X540479Y415341D01*
Y393505D01*
X576428D01*
Y407055D01*
X596429Y416268D01*
X597513Y415341D01*
Y393505D01*
X633463D01*
Y407055D01*
X653463Y416268D01*
X654548Y415341D01*
Y393505D01*
X690498D01*
Y407055D01*
X710498Y416268D01*
X711582Y415340D01*
Y393505D01*
X747532D01*
Y407055D01*
X767532Y416268D01*
X768617Y415341D01*
Y393505D01*
X804567D01*
Y407055D01*
X824567Y416268D01*
X825651Y415341D01*
Y393505D01*
X861601D01*
Y407055D01*
X881601Y416268D01*
X882686Y415340D01*
Y393505D01*
X918636D01*
Y407055D01*
X938636Y416268D01*
X939720Y415341D01*
Y393505D01*
X975670D01*
Y407055D01*
X995670Y416268D01*
X996755Y415341D01*
Y393505D01*
X1032705D01*
Y429455D01*
Y444325D01*
X1037261Y461085D01*
X1042175Y472948D01*
Y647604D01*
X1042175Y647604D01*
X1037261Y659467D01*
X1037261Y659467D01*
X1035317Y661411D01*
Y737870D01*
X1034347Y740211D01*
Y744474D01*
X1029717Y755651D01*
X1025840Y757257D01*
X1018540Y760281D01*
X1007211Y777236D01*
Y797320D01*
X1019600Y809708D01*
X1023721Y819658D01*
Y987564D01*
X1019600Y997514D01*
X1008914Y1008199D01*
Y1009513D01*
X1000127Y1018300D01*
X987701D01*
X982839Y1013438D01*
X971689Y1011056D01*
X960540Y1013438D01*
X955677Y1018300D01*
X943251D01*
X934464Y1009513D01*
Y1008199D01*
X927815Y1001551D01*
X915774Y999117D01*
X903793Y1001561D01*
X897154Y1008199D01*
Y1009513D01*
X888367Y1018300D01*
X875941D01*
X871451Y1013810D01*
X864736Y1012726D01*
X858762Y1011761D01*
X849152Y1014336D01*
X843917Y1019570D01*
X831491D01*
X822704Y1010783D01*
X822704Y1009470D01*
X814786Y1001551D01*
X804855Y999544D01*
X791289Y1001035D01*
X784124Y1008199D01*
Y1009513D01*
X780693Y1012945D01*
X775337Y1018300D01*
X762911D01*
X758793Y1014182D01*
X752755Y1013510D01*
X744604Y1012602D01*
X736494Y1015234D01*
X730887Y1020840D01*
X718461D01*
X709674Y1012053D01*
X709674Y1010740D01*
X701384Y1002449D01*
X693255Y1000403D01*
X677887Y1001407D01*
X671094Y1008199D01*
Y1009513D01*
X662307Y1018300D01*
X649881D01*
X646420Y1014839D01*
X643595Y1012014D01*
X630663Y1011197D01*
X622348Y1012540D01*
X620001Y1014886D01*
X620001Y1014886D01*
X619582Y1015305D01*
X615317Y1019570D01*
X602891D01*
X594104Y1010783D01*
X594104Y1009470D01*
X588726Y1004091D01*
X575011Y1001319D01*
X564177Y1004627D01*
X558064Y1010740D01*
Y1012053D01*
X554633Y1015485D01*
X549277Y1020840D01*
X536851D01*
D02*
G37*
G36*
X279160Y978680D02*
X278050D01*
Y968930D01*
X287800D01*
Y970040D01*
X279160Y978680D01*
D02*
G37*
G36*
X268050D02*
X266940D01*
X258300Y970040D01*
Y968930D01*
X268050D01*
Y978680D01*
D02*
G37*
G36*
X287800Y958930D02*
X278050D01*
Y949180D01*
X279160D01*
X287800Y957820D01*
Y958930D01*
D02*
G37*
G36*
X268050D02*
X258300D01*
Y957820D01*
X266940Y949180D01*
X268050D01*
Y958930D01*
D02*
G37*
G36*
X270440Y921910D02*
X261360Y912831D01*
Y911410D01*
X271860D01*
Y921910D01*
X270440D01*
D02*
G37*
G36*
X271860Y901410D02*
X261360D01*
Y899990D01*
X265377Y895973D01*
X270440Y890910D01*
X271860D01*
Y901410D01*
D02*
G37*
G36*
X292360Y843910D02*
X261360D01*
Y812910D01*
X283591D01*
X291875Y792910D01*
X290710Y791745D01*
Y776916D01*
X301196Y766430D01*
X316024D01*
X326510Y776916D01*
Y783082D01*
X328942Y795762D01*
X336189Y807736D01*
X338850Y810397D01*
Y822823D01*
X330063Y831610D01*
X317637D01*
X312360Y826333D01*
X292360Y831297D01*
Y843910D01*
D02*
G37*
G36*
X316611Y368040D02*
X314880D01*
Y356790D01*
X326130D01*
Y358521D01*
X316611Y368040D01*
D02*
G37*
G36*
X304880D02*
X303149D01*
X293630Y358521D01*
Y356790D01*
X304880D01*
Y368040D01*
D02*
G37*
G36*
X884264Y333750D02*
X879641Y329127D01*
X876445Y325931D01*
X862794Y327572D01*
Y327572D01*
X862794Y327572D01*
X856445Y333750D01*
Y333750D01*
X823945D01*
Y301250D01*
X856445D01*
Y301250D01*
X862794Y307428D01*
X862794Y307428D01*
Y307428D01*
X876445Y309069D01*
X878263Y307251D01*
Y307251D01*
X878664Y306850D01*
X884264Y301250D01*
X897726D01*
X907245Y310769D01*
Y324231D01*
X902349Y329127D01*
X897726Y333750D01*
X884264D01*
D02*
G37*
G36*
X326130Y346790D02*
X309880D01*
X293630D01*
Y345059D01*
X299230Y339459D01*
X299632Y339058D01*
X299632D01*
X301449Y337240D01*
X299808Y323589D01*
X299808D01*
X299808Y323589D01*
X293630Y317240D01*
X293630D01*
Y305990D01*
X309880D01*
X326130D01*
Y317240D01*
X326130D01*
X319952Y323589D01*
X319952Y323589D01*
X319952D01*
X318311Y337240D01*
X320129Y339058D01*
X320129D01*
X320530Y339459D01*
X326130Y345059D01*
Y346790D01*
D02*
G37*
G36*
X957020Y334821D02*
X954434Y333750D01*
X937520D01*
Y301250D01*
X970020D01*
Y301250D01*
X976369Y307428D01*
X976369Y307428D01*
Y307428D01*
X990020Y309069D01*
X991837Y307251D01*
Y307251D01*
X992239Y306850D01*
X997839Y301250D01*
X1011301D01*
X1020820Y310769D01*
Y324231D01*
X1015924Y329127D01*
X1011301Y333750D01*
X997839D01*
X993216Y329127D01*
X990020Y325931D01*
X976369Y327572D01*
Y327572D01*
X976369Y327572D01*
X972255Y331576D01*
X970020Y333750D01*
X968026Y333914D01*
X957020Y334821D01*
D02*
G37*
G36*
X402149Y333750D02*
Y333750D01*
X369649D01*
Y301250D01*
X402149D01*
Y301250D01*
X408498Y307428D01*
X408498Y307428D01*
Y307428D01*
X422149Y309069D01*
X423966Y307251D01*
Y307251D01*
X424367Y306850D01*
X429968Y301250D01*
X443430D01*
X452949Y310769D01*
Y324231D01*
X443430Y333750D01*
X429968D01*
X424367Y328150D01*
X423966Y327748D01*
Y327748D01*
X422149Y325931D01*
X408498Y327572D01*
Y327572D01*
X408498Y327572D01*
X402149Y333750D01*
D02*
G37*
G36*
X729557Y334507D02*
X710371Y333750D01*
X710371Y333402D01*
X710371Y333402D01*
Y301250D01*
X742871D01*
Y301250D01*
X749220Y307428D01*
X749220Y307428D01*
Y307428D01*
X762871Y309069D01*
X764689Y307251D01*
Y307251D01*
X765090Y306850D01*
X770690Y301250D01*
X784152D01*
X793671Y310769D01*
X793671Y317307D01*
Y324231D01*
X784152Y333750D01*
X770690D01*
X765090Y328150D01*
X764689Y327748D01*
Y327748D01*
X762871Y325931D01*
X749220Y327572D01*
Y327572D01*
X749220Y327572D01*
X745070Y331610D01*
X742871Y333750D01*
X730070Y334478D01*
X729571Y334506D01*
X729570Y334506D01*
X729557Y334507D01*
D02*
G37*
G36*
X615488Y334012D02*
X596797Y333750D01*
X596797Y331063D01*
X596797Y331063D01*
Y301250D01*
X629297D01*
Y301250D01*
X635646Y307428D01*
X635646Y307428D01*
Y307428D01*
X649297Y309069D01*
X651115Y307251D01*
Y307251D01*
X651516Y306850D01*
X657116Y301250D01*
X670578D01*
X680097Y310769D01*
X680097Y317307D01*
Y324231D01*
X670578Y333750D01*
X657116D01*
X651516Y328150D01*
X651115Y327748D01*
Y327748D01*
X649297Y325931D01*
X635646Y327572D01*
Y327572D01*
X635646Y327572D01*
X629297Y333750D01*
X616698Y333989D01*
X615519Y334011D01*
X615518D01*
X615488Y334012D01*
D02*
G37*
G36*
X515723Y333750D02*
Y333750D01*
X483223D01*
Y301250D01*
X515723D01*
Y301250D01*
X522072Y307428D01*
X522072Y307428D01*
Y307428D01*
X535723Y309069D01*
X537540Y307251D01*
Y307251D01*
X537942Y306850D01*
X543542Y301250D01*
X557004D01*
X566523Y310769D01*
X566523Y317307D01*
Y324231D01*
X557004Y333750D01*
X543542D01*
X537942Y328150D01*
X537540Y327748D01*
Y327748D01*
X535723Y325931D01*
X522072Y327572D01*
Y327572D01*
X522072Y327572D01*
X515723Y333750D01*
D02*
G37*
G36*
X326130Y295990D02*
X314880D01*
Y284740D01*
X326130D01*
Y295990D01*
D02*
G37*
G36*
X304880D02*
X293630D01*
Y284740D01*
X304880D01*
Y295990D01*
D02*
G37*
G36*
X252429Y281920D02*
X243760D01*
Y253920D01*
X271760D01*
Y262589D01*
X252429Y281920D01*
D02*
G37*
G36*
X1042750Y279380D02*
X1034081D01*
X1014750Y260049D01*
Y251380D01*
X1042750D01*
Y279380D01*
D02*
G37*
%LPD*%
G36*
X757305Y993906D02*
X762911Y988300D01*
X764225D01*
X770789Y981736D01*
Y916700D01*
X762911D01*
X758793Y912582D01*
X744604Y911002D01*
X736494Y913634D01*
X730887Y919240D01*
X722985D01*
Y984251D01*
X729574Y990840D01*
X730887D01*
X735006Y994958D01*
X741044Y995630D01*
X749194Y996538D01*
X757305Y993906D01*
D02*
G37*
G36*
X529666Y998024D02*
X536851Y990840D01*
X538165D01*
X544729Y984276D01*
Y919240D01*
X536851D01*
X528923Y911312D01*
X522107Y910553D01*
X508202Y910786D01*
X501017Y917970D01*
X493115D01*
Y982981D01*
X499704Y989570D01*
X501017D01*
X505056Y993608D01*
X508946Y997498D01*
X515761Y998257D01*
X529666Y998024D01*
D02*
G37*
G36*
X870707Y993534D02*
X875941Y988300D01*
X877255D01*
X883819Y981736D01*
Y916700D01*
X875941D01*
X871451Y912210D01*
X858762Y910161D01*
X849152Y912736D01*
X843917Y917970D01*
X836015D01*
Y982981D01*
X842604Y989570D01*
X843917D01*
X848408Y994060D01*
X855122Y995144D01*
X861096Y996109D01*
X870707Y993534D01*
D02*
G37*
G36*
X642851Y995330D02*
X649881Y988300D01*
X651195D01*
X657759Y981736D01*
Y916700D01*
X649881D01*
X643595Y910414D01*
X630663Y909597D01*
X622348Y910940D01*
X615317Y917970D01*
X607415D01*
Y982981D01*
X614004Y989570D01*
X615317D01*
X618778Y993031D01*
X621604Y995856D01*
X634535Y996673D01*
X642851Y995330D01*
D02*
G37*
G36*
X982839Y993162D02*
X987701Y988300D01*
X989015D01*
X995579Y981736D01*
Y916700D01*
X987701D01*
X982839Y911838D01*
X971689Y909456D01*
X960540Y911838D01*
X955677Y916700D01*
X947775D01*
Y981711D01*
X954364Y988300D01*
X955677D01*
X960540Y993162D01*
X971689Y995544D01*
X982839Y993162D01*
D02*
G37*
G36*
X398141Y997784D02*
X410886Y997360D01*
X414883Y997227D01*
X415034Y997087D01*
X419940Y992181D01*
X419940Y992181D01*
X420195Y991926D01*
X423821Y988300D01*
X425135D01*
X431699Y981736D01*
Y917815D01*
X429738Y916700D01*
X423821D01*
X416015Y908894D01*
X415139Y908395D01*
X395504Y909048D01*
Y909183D01*
X386717Y917970D01*
X378815D01*
Y982981D01*
X385404Y989570D01*
X386717D01*
X395034Y997887D01*
X398141Y997784D01*
D02*
G37*
G36*
X480509Y852774D02*
Y845566D01*
X485139Y834389D01*
X496316Y829759D01*
X506799Y814070D01*
X496316Y798381D01*
X485139Y793751D01*
X480509Y782574D01*
Y769366D01*
X473855Y764878D01*
X449622Y769722D01*
X444601Y777236D01*
Y798590D01*
X455720Y809708D01*
X459841Y819658D01*
Y844557D01*
X479841Y853383D01*
X480509Y852774D01*
D02*
G37*
G36*
X594555Y854211D02*
Y845566D01*
X599185Y834389D01*
X610362Y829759D01*
X620845Y814070D01*
X610362Y798381D01*
X599185Y793751D01*
X594555Y782574D01*
Y769366D01*
X586592Y763800D01*
X562870Y768635D01*
X557123Y777236D01*
Y799352D01*
X568750Y810978D01*
X572871Y820928D01*
Y847408D01*
X592871Y855850D01*
X594555Y854211D01*
D02*
G37*
G36*
X708601Y856156D02*
Y845566D01*
X713231Y834389D01*
X724408Y829759D01*
X734891Y814070D01*
X724408Y798381D01*
X713231Y793751D01*
X708601Y782574D01*
Y769366D01*
X699384Y762441D01*
X676581Y766857D01*
X669645Y777236D01*
Y797574D01*
X681780Y809708D01*
X685901Y819658D01*
Y850570D01*
X686254Y851172D01*
X686399Y851316D01*
X705901Y859033D01*
X708601Y856156D01*
D02*
G37*
G36*
X822647Y857085D02*
Y845566D01*
X827277Y834389D01*
X838454Y829759D01*
X848937Y814070D01*
X838454Y798381D01*
X827277Y793751D01*
X822647Y782574D01*
Y769366D01*
X812278Y760571D01*
X790660Y764526D01*
X782167Y777236D01*
Y797066D01*
X794810Y809708D01*
X798931Y819658D01*
Y851787D01*
X801427Y854522D01*
X818931Y861225D01*
X822647Y857085D01*
D02*
G37*
G36*
X936693Y858774D02*
Y845566D01*
X941323Y834389D01*
X952500Y829759D01*
X962983Y814070D01*
X952500Y798381D01*
X941323Y793751D01*
X936693Y782574D01*
Y769366D01*
X933485Y765493D01*
X917195Y755651D01*
X913318Y757257D01*
X906018Y760281D01*
X894689Y777236D01*
Y796558D01*
X907840Y809708D01*
X911961Y819658D01*
Y853176D01*
X922623Y862095D01*
X931961Y864005D01*
X936693Y858774D01*
D02*
G37*
G36*
X499263Y684105D02*
Y653140D01*
X490215Y648871D01*
X485530Y650442D01*
X477569Y655572D01*
X472707Y661670D01*
Y678214D01*
X492707Y688665D01*
X499263Y684105D01*
D02*
G37*
G36*
X612293Y685154D02*
Y651295D01*
X602390Y646575D01*
X595308Y649892D01*
X585694Y658103D01*
X584651Y660275D01*
X585229Y661670D01*
Y680758D01*
X605229Y690597D01*
X612293Y685154D01*
D02*
G37*
G36*
X595639Y622437D02*
X604426Y613650D01*
X612293D01*
Y548604D01*
X605739Y542050D01*
X604426D01*
X595639Y533263D01*
X589182Y531510D01*
X569182Y533263D01*
X560395Y542050D01*
X559081D01*
X551281Y549850D01*
Y613650D01*
X560395D01*
X569182Y622437D01*
Y626522D01*
X575639Y630791D01*
X595639Y622437D01*
D02*
G37*
G36*
X725069Y686313D02*
Y643650D01*
X717340D01*
X708553Y634863D01*
Y622437D01*
X717340Y613650D01*
X725069D01*
Y548465D01*
X718654Y542050D01*
X717340D01*
X708553Y533263D01*
X702096Y531365D01*
X682096Y533263D01*
X673310Y542050D01*
X671996D01*
X661771Y552275D01*
Y613650D01*
X673310D01*
X682096Y622437D01*
Y634863D01*
X692151Y643888D01*
X692151Y643889D01*
X695175Y651189D01*
X696781Y655066D01*
Y659329D01*
X697751Y661670D01*
Y683044D01*
X717751Y692411D01*
X725069Y686313D01*
D02*
G37*
G36*
X482725Y622437D02*
X491511Y613650D01*
X499263D01*
Y548488D01*
X492825Y542050D01*
X491511D01*
X482725Y533263D01*
X476105Y531232D01*
X456267Y533263D01*
X447480Y542050D01*
X446167D01*
X436981Y551236D01*
Y613650D01*
X447480D01*
X456267Y622437D01*
Y626272D01*
X462725Y630438D01*
X482725Y622437D01*
D02*
G37*
G36*
X838099Y687501D02*
Y643650D01*
X830255D01*
X821468Y634863D01*
Y622437D01*
X830255Y613650D01*
X838099D01*
Y548580D01*
X831569Y542050D01*
X830255D01*
X821468Y533263D01*
X815011Y530689D01*
X795011Y533263D01*
X786224Y542050D01*
X784910D01*
X774801Y552159D01*
Y613650D01*
X786224D01*
X795011Y622437D01*
X795011Y634863D01*
X804673Y643889D01*
X809303Y655066D01*
Y659329D01*
X810273Y661670D01*
Y686188D01*
X813141Y688924D01*
X830273Y695194D01*
X838099Y687501D01*
D02*
G37*
G36*
X950151Y689194D02*
X950875Y687926D01*
Y643650D01*
X943170D01*
X934383Y634863D01*
Y622437D01*
X943170Y613650D01*
X950875D01*
Y548442D01*
X944483Y542050D01*
X943170D01*
X934383Y533263D01*
X927925Y529913D01*
X907925Y533263D01*
X899138Y542050D01*
X897825D01*
X887831Y552044D01*
Y613650D01*
X899138D01*
X907925Y622437D01*
X907925Y634863D01*
X917195Y643889D01*
X921825Y655066D01*
Y659329D01*
X922795Y661670D01*
Y685597D01*
X942795Y695144D01*
X950151Y689194D01*
D02*
G37*
D28*
X1018540Y654462D02*
Y737870D01*
X1025398Y472948D02*
Y647604D01*
X1018540Y654462D02*
X1025398Y647604D01*
X906018Y661670D02*
Y737870D01*
X793496Y661670D02*
Y737870D01*
X680974Y661670D02*
Y737870D01*
X455930Y661670D02*
Y737870D01*
X407670Y775970D02*
Y852170D01*
X568452Y661670D02*
Y737870D01*
D29*
X613047Y317500D02*
X615488Y319941D01*
X840195Y317500D02*
X841795Y319099D01*
X385899Y317500D02*
X387350Y318951D01*
X953770Y317500D02*
X957020Y320750D01*
X726621Y317500D02*
X729557Y320436D01*
X499473Y317500D02*
X501419Y319446D01*
X593344Y988810D02*
X609104Y1004570D01*
X323050Y963930D02*
X323450Y963530D01*
X434340Y1101089D02*
Y1101090D01*
X430034Y1003300D02*
X445770Y987564D01*
X985520Y646294D02*
X990600Y651374D01*
Y651658D01*
X985520Y547370D02*
Y646294D01*
Y547370D02*
X1005840Y527050D01*
X993140Y654198D02*
Y661670D01*
X990600Y651658D02*
X993140Y654198D01*
X873760Y647340D02*
X880618Y654198D01*
X873760Y546215D02*
Y647340D01*
Y546215D02*
X892925Y527050D01*
X880618Y654198D02*
Y661670D01*
X760730Y546331D02*
X780011Y527050D01*
X760730Y546331D02*
Y645160D01*
X767482Y661056D02*
X768096Y661670D01*
X767482Y651912D02*
Y661056D01*
X760730Y645160D02*
X767482Y651912D01*
X647700Y546446D02*
X667096Y527050D01*
X647700Y546446D02*
Y647604D01*
X655574Y655478D01*
Y661670D01*
X430530Y655224D02*
Y661670D01*
X422910Y545407D02*
X441267Y527050D01*
X422910Y647604D02*
X430530Y655224D01*
X422910Y545407D02*
Y647604D01*
X537210Y544022D02*
X554182Y527050D01*
X537210Y648356D02*
X543052Y654198D01*
X537210Y544022D02*
Y648356D01*
X543052Y654198D02*
Y661670D01*
X368300Y612140D02*
X384810Y628650D01*
X308700Y486500D02*
X368300Y546100D01*
Y612140D01*
X308610Y473710D02*
X308700Y473800D01*
Y486500D01*
X784860Y819658D02*
Y987564D01*
X768096Y737870D02*
Y802894D01*
X784860Y819658D01*
X382270Y720598D02*
Y775970D01*
Y720598D02*
X400558Y702310D01*
Y542798D02*
Y702310D01*
X384810Y527050D02*
X400558Y542798D01*
X610362Y718312D02*
Y775970D01*
Y718312D02*
X626364Y702310D01*
Y542775D02*
Y702310D01*
X610639Y527050D02*
X626364Y542775D01*
X838454Y716026D02*
Y775970D01*
Y716026D02*
X852170Y702310D01*
Y542752D02*
Y702310D01*
X836468Y527050D02*
X852170Y542752D01*
X496316Y719328D02*
Y775970D01*
Y719328D02*
X513334Y702310D01*
Y542659D02*
Y702310D01*
X497725Y527050D02*
X513334Y542659D01*
X724408Y717042D02*
Y775970D01*
Y717042D02*
X739140Y702310D01*
Y542636D02*
Y702310D01*
X723553Y527050D02*
X739140Y542636D01*
X952500Y714756D02*
Y775970D01*
Y714756D02*
X964946Y702310D01*
Y542613D02*
Y702310D01*
X949383Y527050D02*
X964946Y542613D01*
X430530Y737870D02*
Y804418D01*
X445770Y819658D01*
Y987564D01*
X364744Y988810D02*
X380504Y1004570D01*
X364744Y895096D02*
Y988810D01*
Y895096D02*
X382270Y877570D01*
Y852170D02*
Y877570D01*
X543052Y737870D02*
Y805180D01*
X558800Y820928D01*
Y990104D01*
X543064Y1005840D02*
X558800Y990104D01*
X479044Y988810D02*
X494804Y1004570D01*
X479044Y894842D02*
Y988810D01*
Y894842D02*
X496316Y877570D01*
Y852170D02*
Y877570D01*
X655574Y737870D02*
Y803402D01*
X671830Y819658D01*
Y987564D01*
X656094Y1003300D02*
X671830Y987564D01*
X593344Y894588D02*
Y988810D01*
Y894588D02*
X610362Y877570D01*
Y852170D02*
Y877570D01*
X769124Y1003300D02*
X784860Y987564D01*
X708914Y990080D02*
X724674Y1005840D01*
X708914Y893572D02*
Y990080D01*
Y893572D02*
X724408Y878078D01*
Y852170D02*
Y878078D01*
X880618Y737870D02*
Y802386D01*
X897890Y819658D01*
Y987564D01*
X882154Y1003300D02*
X897890Y987564D01*
X821944Y988810D02*
X837704Y1004570D01*
X821944Y894080D02*
Y988810D01*
Y894080D02*
X838454Y877570D01*
Y852170D02*
Y877570D01*
X993140Y737870D02*
Y803148D01*
X1009650Y819658D01*
Y987564D01*
X993914Y1003300D02*
X1009650Y987564D01*
X933704Y987540D02*
X949464Y1003300D01*
X933704Y895604D02*
Y987540D01*
Y895604D02*
X952500Y876808D01*
Y852170D02*
Y876808D01*
X997204Y454406D02*
X1014730Y436880D01*
X997204Y454406D02*
Y518414D01*
X1005840Y527050D01*
X940054Y517721D02*
X949383Y527050D01*
X940054Y454521D02*
Y517721D01*
Y454521D02*
X957695Y436880D01*
X882904Y454637D02*
X900661Y436880D01*
X882904Y454637D02*
Y517029D01*
X892925Y527050D01*
X826008Y516590D02*
X836468Y527050D01*
X826008Y454498D02*
Y516590D01*
Y454498D02*
X843626Y436880D01*
X768858Y515897D02*
X780011Y527050D01*
X768858Y454614D02*
Y515897D01*
Y454614D02*
X786592Y436880D01*
X711962Y515458D02*
X723553Y527050D01*
X711962Y454475D02*
Y515458D01*
Y454475D02*
X729557Y436880D01*
X654812Y454591D02*
X672523Y436880D01*
X654812Y454591D02*
Y514766D01*
X667096Y527050D01*
X597916Y514327D02*
X610639Y527050D01*
X597916Y454452D02*
Y514327D01*
Y454452D02*
X615488Y436880D01*
X540766Y513634D02*
X554182Y527050D01*
X540766Y454567D02*
Y513634D01*
Y454567D02*
X558453Y436880D01*
X483870Y454429D02*
X501419Y436880D01*
X483870Y454429D02*
Y513195D01*
X497725Y527050D01*
X426720Y454545D02*
X444385Y436880D01*
X426720Y454545D02*
Y512503D01*
X441267Y527050D01*
X369824Y454406D02*
X387350Y436880D01*
X369824Y454406D02*
Y512064D01*
X384810Y527050D01*
X1014730Y462280D02*
X1025398Y472948D01*
X977900Y775970D02*
Y852170D01*
X863854Y775970D02*
Y852170D01*
X749808Y775970D02*
Y852170D01*
X635762Y775970D02*
Y852170D01*
X521716Y775970D02*
Y852170D01*
D30*
X1043940Y1172210D02*
D03*
X1047750Y246380D02*
D03*
X238760Y248920D02*
D03*
X243840Y1164590D02*
D03*
D31*
X663847Y317500D02*
D03*
X306070Y1046480D02*
D03*
X309880Y351790D02*
D03*
X308610Y473710D02*
D03*
X436699Y317500D02*
D03*
X550273D02*
D03*
X777421D02*
D03*
X434340Y1101090D02*
D03*
X545846D02*
D03*
X657352D02*
D03*
X768858D02*
D03*
X890995Y317500D02*
D03*
X1004570D02*
D03*
X880364Y1101090D02*
D03*
X991870D02*
D03*
D32*
X613047Y317500D02*
D03*
X385899D02*
D03*
X499473D02*
D03*
X726621D02*
D03*
X383540Y1101090D02*
D03*
X495046D02*
D03*
X606552D02*
D03*
X718058D02*
D03*
X840195Y317500D02*
D03*
X953770D02*
D03*
X829564Y1101090D02*
D03*
X941070D02*
D03*
D33*
X273050Y963930D02*
D03*
D34*
X323050D02*
D03*
D35*
X323850Y918210D02*
D03*
Y816610D02*
D03*
X380504Y1004570D02*
D03*
Y902970D02*
D03*
X724674Y1005840D02*
D03*
Y904240D02*
D03*
X837704Y1004570D02*
D03*
Y902970D02*
D03*
X494804Y1004570D02*
D03*
Y902970D02*
D03*
X543064Y1005840D02*
D03*
Y904240D02*
D03*
X609104Y1004570D02*
D03*
Y902970D02*
D03*
X882154Y1003300D02*
D03*
Y901700D02*
D03*
X769124Y1003300D02*
D03*
Y901700D02*
D03*
X656094Y1003300D02*
D03*
Y901700D02*
D03*
X430034Y1003300D02*
D03*
Y901700D02*
D03*
X949464Y1003300D02*
D03*
Y901700D02*
D03*
X993914Y1003300D02*
D03*
Y901700D02*
D03*
X667096Y527050D02*
D03*
Y628650D02*
D03*
X441267Y527050D02*
D03*
Y628650D02*
D03*
X892925Y527050D02*
D03*
Y628650D02*
D03*
X384810Y527050D02*
D03*
Y628650D02*
D03*
X836468Y527050D02*
D03*
Y628650D02*
D03*
X610639Y527050D02*
D03*
Y628650D02*
D03*
X554182Y527050D02*
D03*
Y628650D02*
D03*
X780011Y527050D02*
D03*
Y628650D02*
D03*
X1005840Y527050D02*
D03*
Y628650D02*
D03*
X497725Y527050D02*
D03*
Y628650D02*
D03*
X723553Y527050D02*
D03*
Y628650D02*
D03*
X949383Y527050D02*
D03*
Y628650D02*
D03*
D36*
X543052Y661670D02*
D03*
X568452D02*
D03*
Y737870D02*
D03*
X543052D02*
D03*
X430530Y661670D02*
D03*
X455930D02*
D03*
Y737870D02*
D03*
X430530D02*
D03*
X880618Y661670D02*
D03*
X906018D02*
D03*
Y737870D02*
D03*
X880618D02*
D03*
X655574D02*
D03*
X680974D02*
D03*
Y661670D02*
D03*
X655574D02*
D03*
X382270Y852170D02*
D03*
X407670D02*
D03*
Y775970D02*
D03*
X382270D02*
D03*
X838454Y852170D02*
D03*
X863854D02*
D03*
Y775970D02*
D03*
X838454D02*
D03*
X610362Y852170D02*
D03*
X635762D02*
D03*
Y775970D02*
D03*
X610362D02*
D03*
X768096Y737870D02*
D03*
X793496D02*
D03*
Y661670D02*
D03*
X768096D02*
D03*
X993140Y737870D02*
D03*
X1018540D02*
D03*
Y661670D02*
D03*
X993140D02*
D03*
X496316Y852170D02*
D03*
X521716D02*
D03*
Y775970D02*
D03*
X496316D02*
D03*
X724408Y852170D02*
D03*
X749808D02*
D03*
Y775970D02*
D03*
X724408D02*
D03*
X952500Y852170D02*
D03*
X977900D02*
D03*
Y775970D02*
D03*
X952500D02*
D03*
D37*
X306070Y1097280D02*
D03*
X309880Y300990D02*
D03*
X308610Y422910D02*
D03*
D38*
Y784330D02*
D03*
Y559330D02*
D03*
D39*
X276860Y906410D02*
D03*
D40*
Y828410D02*
D03*
D41*
X387350Y411480D02*
D03*
X672523D02*
D03*
X444385D02*
D03*
X900661D02*
D03*
X843626D02*
D03*
X615488D02*
D03*
X558453D02*
D03*
X786592D02*
D03*
X1014730D02*
D03*
X501419D02*
D03*
X729557D02*
D03*
X957695D02*
D03*
D42*
X387350Y436880D02*
D03*
Y462280D02*
D03*
X672523D02*
D03*
Y436880D02*
D03*
X444385Y462280D02*
D03*
Y436880D02*
D03*
X900661Y462280D02*
D03*
Y436880D02*
D03*
X843626Y462280D02*
D03*
Y436880D02*
D03*
X615488Y462280D02*
D03*
Y436880D02*
D03*
X558453Y462280D02*
D03*
Y436880D02*
D03*
X786592Y462280D02*
D03*
Y436880D02*
D03*
X1014730Y462280D02*
D03*
Y436880D02*
D03*
X501419Y462280D02*
D03*
Y436880D02*
D03*
X729557Y462280D02*
D03*
Y436880D02*
D03*
X957695Y462280D02*
D03*
Y436880D02*
D03*
M02*
