G04*
G04 #@! TF.GenerationSoftware,Altium Limited,Altium Designer,22.4.2 (48)*
G04*
G04 Layer_Color=16711935*
%FSLAX44Y44*%
%MOMM*%
G71*
G04*
G04 #@! TF.SameCoordinates,69224164-BCDE-4545-B53B-617D96EECF20*
G04*
G04*
G04 #@! TF.FilePolarity,Negative*
G04*
G01*
G75*
%ADD15C,5.2032*%
%ADD16C,1.8532*%
%ADD17R,1.8532X1.8532*%
%ADD18C,1.5532*%
%ADD19R,1.5532X1.5532*%
%ADD20C,1.6032*%
%ADD21O,1.5240X2.8448*%
%ADD22R,1.8532X1.8532*%
%ADD23C,2.1832*%
%ADD24C,1.7032*%
%ADD25R,1.7032X1.7032*%
%ADD26R,2.1982X2.1982*%
%ADD27C,2.1982*%
D15*
X1043940Y1172210D02*
D03*
X1047750Y246380D02*
D03*
X238760Y248920D02*
D03*
X243840Y1164590D02*
D03*
D16*
X663847Y317500D02*
D03*
X306070Y1046480D02*
D03*
X309880Y351790D02*
D03*
X308610Y473710D02*
D03*
X436699Y317500D02*
D03*
X550273D02*
D03*
X777421D02*
D03*
X434340Y1101090D02*
D03*
X545846D02*
D03*
X657352D02*
D03*
X768858D02*
D03*
X890995Y317500D02*
D03*
X1004570D02*
D03*
X880364Y1101090D02*
D03*
X991870D02*
D03*
D17*
X613047Y317500D02*
D03*
X385899D02*
D03*
X499473D02*
D03*
X726621D02*
D03*
X383540Y1101090D02*
D03*
X495046D02*
D03*
X606552D02*
D03*
X718058D02*
D03*
X840195Y317500D02*
D03*
X953770D02*
D03*
X829564Y1101090D02*
D03*
X941070D02*
D03*
D18*
X273050Y963930D02*
D03*
D19*
X323050D02*
D03*
D20*
X323850Y918210D02*
D03*
Y816610D02*
D03*
X380504Y1004570D02*
D03*
Y902970D02*
D03*
X724674Y1005840D02*
D03*
Y904240D02*
D03*
X837704Y1004570D02*
D03*
Y902970D02*
D03*
X494804Y1004570D02*
D03*
Y902970D02*
D03*
X543064Y1005840D02*
D03*
Y904240D02*
D03*
X609104Y1004570D02*
D03*
Y902970D02*
D03*
X882154Y1003300D02*
D03*
Y901700D02*
D03*
X769124Y1003300D02*
D03*
Y901700D02*
D03*
X656094Y1003300D02*
D03*
Y901700D02*
D03*
X430034Y1003300D02*
D03*
Y901700D02*
D03*
X949464Y1003300D02*
D03*
Y901700D02*
D03*
X993914Y1003300D02*
D03*
Y901700D02*
D03*
X667096Y527050D02*
D03*
Y628650D02*
D03*
X441267Y527050D02*
D03*
Y628650D02*
D03*
X892925Y527050D02*
D03*
Y628650D02*
D03*
X384810Y527050D02*
D03*
Y628650D02*
D03*
X836468Y527050D02*
D03*
Y628650D02*
D03*
X610639Y527050D02*
D03*
Y628650D02*
D03*
X554182Y527050D02*
D03*
Y628650D02*
D03*
X780011Y527050D02*
D03*
Y628650D02*
D03*
X1005840Y527050D02*
D03*
Y628650D02*
D03*
X497725Y527050D02*
D03*
Y628650D02*
D03*
X723553Y527050D02*
D03*
Y628650D02*
D03*
X949383Y527050D02*
D03*
Y628650D02*
D03*
D21*
X543052Y661670D02*
D03*
X568452D02*
D03*
Y737870D02*
D03*
X543052D02*
D03*
X430530Y661670D02*
D03*
X455930D02*
D03*
Y737870D02*
D03*
X430530D02*
D03*
X880618Y661670D02*
D03*
X906018D02*
D03*
Y737870D02*
D03*
X880618D02*
D03*
X655574D02*
D03*
X680974D02*
D03*
Y661670D02*
D03*
X655574D02*
D03*
X382270Y852170D02*
D03*
X407670D02*
D03*
Y775970D02*
D03*
X382270D02*
D03*
X838454Y852170D02*
D03*
X863854D02*
D03*
Y775970D02*
D03*
X838454D02*
D03*
X610362Y852170D02*
D03*
X635762D02*
D03*
Y775970D02*
D03*
X610362D02*
D03*
X768096Y737870D02*
D03*
X793496D02*
D03*
Y661670D02*
D03*
X768096D02*
D03*
X993140Y737870D02*
D03*
X1018540D02*
D03*
Y661670D02*
D03*
X993140D02*
D03*
X496316Y852170D02*
D03*
X521716D02*
D03*
Y775970D02*
D03*
X496316D02*
D03*
X724408Y852170D02*
D03*
X749808D02*
D03*
Y775970D02*
D03*
X724408D02*
D03*
X952500Y852170D02*
D03*
X977900D02*
D03*
Y775970D02*
D03*
X952500D02*
D03*
D22*
X306070Y1097280D02*
D03*
X309880Y300990D02*
D03*
X308610Y422910D02*
D03*
D23*
Y784330D02*
D03*
Y559330D02*
D03*
D24*
X276860Y906410D02*
D03*
D25*
Y828410D02*
D03*
D26*
X387350Y411480D02*
D03*
X672523D02*
D03*
X444385D02*
D03*
X900661D02*
D03*
X843626D02*
D03*
X615488D02*
D03*
X558453D02*
D03*
X786592D02*
D03*
X1014730D02*
D03*
X501419D02*
D03*
X729557D02*
D03*
X957695D02*
D03*
D27*
X387350Y436880D02*
D03*
Y462280D02*
D03*
X672523D02*
D03*
Y436880D02*
D03*
X444385Y462280D02*
D03*
Y436880D02*
D03*
X900661Y462280D02*
D03*
Y436880D02*
D03*
X843626Y462280D02*
D03*
Y436880D02*
D03*
X615488Y462280D02*
D03*
Y436880D02*
D03*
X558453Y462280D02*
D03*
Y436880D02*
D03*
X786592Y462280D02*
D03*
Y436880D02*
D03*
X1014730Y462280D02*
D03*
Y436880D02*
D03*
X501419Y462280D02*
D03*
Y436880D02*
D03*
X729557Y462280D02*
D03*
Y436880D02*
D03*
X957695Y462280D02*
D03*
Y436880D02*
D03*
M02*
