G04*
G04 #@! TF.GenerationSoftware,Altium Limited,Altium Designer,22.4.2 (48)*
G04*
G04 Layer_Color=128*
%FSLAX44Y44*%
%MOMM*%
G71*
G04*
G04 #@! TF.SameCoordinates,69224164-BCDE-4545-B53B-617D96EECF20*
G04*
G04*
G04 #@! TF.FilePolarity,Positive*
G04*
G01*
G75*
%ADD12C,0.1270*%
D12*
X1023940Y1172210D02*
X1063940D01*
X1043940Y1152210D02*
Y1192210D01*
X1027750Y246380D02*
X1067750D01*
X1047750Y226380D02*
Y266380D01*
X218760Y248920D02*
X258760D01*
X238760Y228920D02*
Y268920D01*
X223840Y1164590D02*
X263840D01*
X243840Y1144590D02*
Y1184590D01*
X658347Y317500D02*
X669347D01*
X663847Y312000D02*
Y323000D01*
X607547Y317500D02*
X618547D01*
X613047Y312000D02*
Y323000D01*
X269050Y963930D02*
X277050D01*
X273050Y959930D02*
Y967930D01*
X319050Y963930D02*
X327050D01*
X323050Y959930D02*
Y967930D01*
X319600Y918210D02*
X328100D01*
X323850Y913960D02*
Y922460D01*
X319600Y816610D02*
X328100D01*
X323850Y812360D02*
Y820860D01*
X538988Y661670D02*
X547116D01*
X543052Y657606D02*
Y665734D01*
X564388Y661670D02*
X572516D01*
X568452Y657606D02*
Y665734D01*
X564388Y737870D02*
X572516D01*
X568452Y733806D02*
Y741934D01*
X538988Y737870D02*
X547116D01*
X543052Y733806D02*
Y741934D01*
X300570Y1046480D02*
X311570D01*
X306070Y1040980D02*
Y1051980D01*
X300570Y1097280D02*
X311570D01*
X306070Y1091780D02*
Y1102780D01*
X302010Y784330D02*
X315210D01*
X308610Y777730D02*
Y790930D01*
X302010Y559330D02*
X315210D01*
X308610Y552730D02*
Y565930D01*
X272360Y906410D02*
X281360D01*
X276860Y901910D02*
Y910910D01*
X272360Y828410D02*
X281360D01*
X276860Y823910D02*
Y832910D01*
X380700Y411480D02*
X394000D01*
X387350Y404830D02*
Y418130D01*
X380700Y436880D02*
X394000D01*
X387350Y430230D02*
Y443530D01*
X380700Y462280D02*
X394000D01*
X387350Y455630D02*
Y468930D01*
X304380Y351790D02*
X315380D01*
X309880Y346290D02*
Y357290D01*
X304380Y300990D02*
X315380D01*
X309880Y295490D02*
Y306490D01*
X426466Y661670D02*
X434594D01*
X430530Y657606D02*
Y665734D01*
X451866Y661670D02*
X459994D01*
X455930Y657606D02*
Y665734D01*
X451866Y737870D02*
X459994D01*
X455930Y733806D02*
Y741934D01*
X426466Y737870D02*
X434594D01*
X430530Y733806D02*
Y741934D01*
X376254Y1004570D02*
X384754D01*
X380504Y1000320D02*
Y1008820D01*
X376254Y902970D02*
X384754D01*
X380504Y898720D02*
Y907220D01*
X720424Y1005840D02*
X728924D01*
X724674Y1001590D02*
Y1010090D01*
X720424Y904240D02*
X728924D01*
X724674Y899990D02*
Y908490D01*
X833454Y1004570D02*
X841954D01*
X837704Y1000320D02*
Y1008820D01*
X833454Y902970D02*
X841954D01*
X837704Y898720D02*
Y907220D01*
X490554Y1004570D02*
X499054D01*
X494804Y1000320D02*
Y1008820D01*
X490554Y902970D02*
X499054D01*
X494804Y898720D02*
Y907220D01*
X538814Y1005840D02*
X547314D01*
X543064Y1001590D02*
Y1010090D01*
X538814Y904240D02*
X547314D01*
X543064Y899990D02*
Y908490D01*
X604854Y1004570D02*
X613354D01*
X609104Y1000320D02*
Y1008820D01*
X604854Y902970D02*
X613354D01*
X609104Y898720D02*
Y907220D01*
X877904Y1003300D02*
X886404D01*
X882154Y999050D02*
Y1007550D01*
X877904Y901700D02*
X886404D01*
X882154Y897450D02*
Y905950D01*
X764874Y1003300D02*
X773374D01*
X769124Y999050D02*
Y1007550D01*
X764874Y901700D02*
X773374D01*
X769124Y897450D02*
Y905950D01*
X651844Y1003300D02*
X660344D01*
X656094Y999050D02*
Y1007550D01*
X651844Y901700D02*
X660344D01*
X656094Y897450D02*
Y905950D01*
X425784Y1003300D02*
X434284D01*
X430034Y999050D02*
Y1007550D01*
X425784Y901700D02*
X434284D01*
X430034Y897450D02*
Y905950D01*
X945214Y1003300D02*
X953714D01*
X949464Y999050D02*
Y1007550D01*
X945214Y901700D02*
X953714D01*
X949464Y897450D02*
Y905950D01*
X989664Y1003300D02*
X998164D01*
X993914Y999050D02*
Y1007550D01*
X989664Y901700D02*
X998164D01*
X993914Y897450D02*
Y905950D01*
X303110Y473710D02*
X314110D01*
X308610Y468210D02*
Y479210D01*
X303110Y422910D02*
X314110D01*
X308610Y417410D02*
Y428410D01*
X876554Y661670D02*
X884682D01*
X880618Y657606D02*
Y665734D01*
X901954Y661670D02*
X910082D01*
X906018Y657606D02*
Y665734D01*
X901954Y737870D02*
X910082D01*
X906018Y733806D02*
Y741934D01*
X876554Y737870D02*
X884682D01*
X880618Y733806D02*
Y741934D01*
X662847Y527050D02*
X671347D01*
X667096Y522800D02*
Y531300D01*
X662847Y628650D02*
X671347D01*
X667096Y624400D02*
Y632900D01*
X437017Y527050D02*
X445517D01*
X441267Y522800D02*
Y531300D01*
X437017Y628650D02*
X445517D01*
X441267Y624400D02*
Y632900D01*
X888675Y527050D02*
X897175D01*
X892925Y522800D02*
Y531300D01*
X888675Y628650D02*
X897175D01*
X892925Y624400D02*
Y632900D01*
X380560Y527050D02*
X389060D01*
X384810Y522800D02*
Y531300D01*
X380560Y628650D02*
X389060D01*
X384810Y624400D02*
Y632900D01*
X832218Y527050D02*
X840718D01*
X836468Y522800D02*
Y531300D01*
X832218Y628650D02*
X840718D01*
X836468Y624400D02*
Y632900D01*
X606389Y527050D02*
X614889D01*
X610639Y522800D02*
Y531300D01*
X606389Y628650D02*
X614889D01*
X610639Y624400D02*
Y632900D01*
X549932Y527050D02*
X558432D01*
X554182Y522800D02*
Y531300D01*
X549932Y628650D02*
X558432D01*
X554182Y624400D02*
Y632900D01*
X775761Y527050D02*
X784261D01*
X780011Y522800D02*
Y531300D01*
X775761Y628650D02*
X784261D01*
X780011Y624400D02*
Y632900D01*
X1001590Y527050D02*
X1010090D01*
X1005840Y522800D02*
Y531300D01*
X1001590Y628650D02*
X1010090D01*
X1005840Y624400D02*
Y632900D01*
X493475Y527050D02*
X501975D01*
X497725Y522800D02*
Y531300D01*
X493475Y628650D02*
X501975D01*
X497725Y624400D02*
Y632900D01*
X719304Y527050D02*
X727803D01*
X723553Y522800D02*
Y531300D01*
X719304Y628650D02*
X727803D01*
X723553Y624400D02*
Y632900D01*
X945133Y527050D02*
X953633D01*
X949383Y522800D02*
Y531300D01*
X945133Y628650D02*
X953633D01*
X949383Y624400D02*
Y632900D01*
X431199Y317500D02*
X442199D01*
X436699Y312000D02*
Y323000D01*
X380399Y317500D02*
X391399D01*
X385899Y312000D02*
Y323000D01*
X544773Y317500D02*
X555773D01*
X550273Y312000D02*
Y323000D01*
X493973Y317500D02*
X504973D01*
X499473Y312000D02*
Y323000D01*
X771921Y317500D02*
X782921D01*
X777421Y312000D02*
Y323000D01*
X721121Y317500D02*
X732121D01*
X726621Y312000D02*
Y323000D01*
X428840Y1101090D02*
X439840D01*
X434340Y1095590D02*
Y1106590D01*
X378040Y1101090D02*
X389040D01*
X383540Y1095590D02*
Y1106590D01*
X540346Y1101090D02*
X551346D01*
X545846Y1095590D02*
Y1106590D01*
X489546Y1101090D02*
X500546D01*
X495046Y1095590D02*
Y1106590D01*
X651852Y1101090D02*
X662852D01*
X657352Y1095590D02*
Y1106590D01*
X601052Y1101090D02*
X612052D01*
X606552Y1095590D02*
Y1106590D01*
X763358Y1101090D02*
X774358D01*
X768858Y1095590D02*
Y1106590D01*
X712558Y1101090D02*
X723558D01*
X718058Y1095590D02*
Y1106590D01*
X651510Y737870D02*
X659638D01*
X655574Y733806D02*
Y741934D01*
X676910Y737870D02*
X685038D01*
X680974Y733806D02*
Y741934D01*
X676910Y661670D02*
X685038D01*
X680974Y657606D02*
Y665734D01*
X651510Y661670D02*
X659638D01*
X655574Y657606D02*
Y665734D01*
X665873Y462280D02*
X679173D01*
X672523Y455630D02*
Y468930D01*
X665873Y436880D02*
X679173D01*
X672523Y430230D02*
Y443530D01*
X665873Y411480D02*
X679173D01*
X672523Y404830D02*
Y418130D01*
X437735Y462280D02*
X451035D01*
X444385Y455630D02*
Y468930D01*
X437735Y436880D02*
X451035D01*
X444385Y430230D02*
Y443530D01*
X437735Y411480D02*
X451035D01*
X444385Y404830D02*
Y418130D01*
X894011Y462280D02*
X907311D01*
X900661Y455630D02*
Y468930D01*
X894011Y436880D02*
X907311D01*
X900661Y430230D02*
Y443530D01*
X894011Y411480D02*
X907311D01*
X900661Y404830D02*
Y418130D01*
X885495Y317500D02*
X896495D01*
X890995Y312000D02*
Y323000D01*
X834695Y317500D02*
X845695D01*
X840195Y312000D02*
Y323000D01*
X378206Y852170D02*
X386334D01*
X382270Y848106D02*
Y856234D01*
X403606Y852170D02*
X411734D01*
X407670Y848106D02*
Y856234D01*
X403606Y775970D02*
X411734D01*
X407670Y771906D02*
Y780034D01*
X378206Y775970D02*
X386334D01*
X382270Y771906D02*
Y780034D01*
X834390Y852170D02*
X842518D01*
X838454Y848106D02*
Y856234D01*
X859790Y852170D02*
X867918D01*
X863854Y848106D02*
Y856234D01*
X859790Y775970D02*
X867918D01*
X863854Y771906D02*
Y780034D01*
X834390Y775970D02*
X842518D01*
X838454Y771906D02*
Y780034D01*
X606298Y852170D02*
X614426D01*
X610362Y848106D02*
Y856234D01*
X631698Y852170D02*
X639826D01*
X635762Y848106D02*
Y856234D01*
X631698Y775970D02*
X639826D01*
X635762Y771906D02*
Y780034D01*
X606298Y775970D02*
X614426D01*
X610362Y771906D02*
Y780034D01*
X999070Y317500D02*
X1010070D01*
X1004570Y312000D02*
Y323000D01*
X948270Y317500D02*
X959270D01*
X953770Y312000D02*
Y323000D01*
X836976Y462280D02*
X850276D01*
X843626Y455630D02*
Y468930D01*
X836976Y436880D02*
X850276D01*
X843626Y430230D02*
Y443530D01*
X836976Y411480D02*
X850276D01*
X843626Y404830D02*
Y418130D01*
X608838Y462280D02*
X622138D01*
X615488Y455630D02*
Y468930D01*
X608838Y436880D02*
X622138D01*
X615488Y430230D02*
Y443530D01*
X608838Y411480D02*
X622138D01*
X615488Y404830D02*
Y418130D01*
X874864Y1101090D02*
X885864D01*
X880364Y1095590D02*
Y1106590D01*
X824064Y1101090D02*
X835064D01*
X829564Y1095590D02*
Y1106590D01*
X764032Y737870D02*
X772160D01*
X768096Y733806D02*
Y741934D01*
X789432Y737870D02*
X797560D01*
X793496Y733806D02*
Y741934D01*
X789432Y661670D02*
X797560D01*
X793496Y657606D02*
Y665734D01*
X764032Y661670D02*
X772160D01*
X768096Y657606D02*
Y665734D01*
X551804Y462280D02*
X565103D01*
X558453Y455630D02*
Y468930D01*
X551804Y436880D02*
X565103D01*
X558453Y430230D02*
Y443530D01*
X551804Y411480D02*
X565103D01*
X558453Y404830D02*
Y418130D01*
X989076Y737870D02*
X997204D01*
X993140Y733806D02*
Y741934D01*
X1014476Y737870D02*
X1022604D01*
X1018540Y733806D02*
Y741934D01*
X1014476Y661670D02*
X1022604D01*
X1018540Y657606D02*
Y665734D01*
X989076Y661670D02*
X997204D01*
X993140Y657606D02*
Y665734D01*
X986370Y1101090D02*
X997370D01*
X991870Y1095590D02*
Y1106590D01*
X935570Y1101090D02*
X946570D01*
X941070Y1095590D02*
Y1106590D01*
X779942Y462280D02*
X793242D01*
X786592Y455630D02*
Y468930D01*
X779942Y436880D02*
X793242D01*
X786592Y430230D02*
Y443530D01*
X779942Y411480D02*
X793242D01*
X786592Y404830D02*
Y418130D01*
X1008080Y462280D02*
X1021380D01*
X1014730Y455630D02*
Y468930D01*
X1008080Y436880D02*
X1021380D01*
X1014730Y430230D02*
Y443530D01*
X1008080Y411480D02*
X1021380D01*
X1014730Y404830D02*
Y418130D01*
X492252Y852170D02*
X500380D01*
X496316Y848106D02*
Y856234D01*
X517652Y852170D02*
X525780D01*
X521716Y848106D02*
Y856234D01*
X517652Y775970D02*
X525780D01*
X521716Y771906D02*
Y780034D01*
X492252Y775970D02*
X500380D01*
X496316Y771906D02*
Y780034D01*
X720344Y852170D02*
X728472D01*
X724408Y848106D02*
Y856234D01*
X745744Y852170D02*
X753872D01*
X749808Y848106D02*
Y856234D01*
X745744Y775970D02*
X753872D01*
X749808Y771906D02*
Y780034D01*
X720344Y775970D02*
X728472D01*
X724408Y771906D02*
Y780034D01*
X948436Y852170D02*
X956564D01*
X952500Y848106D02*
Y856234D01*
X973836Y852170D02*
X981964D01*
X977900Y848106D02*
Y856234D01*
X973836Y775970D02*
X981964D01*
X977900Y771906D02*
Y780034D01*
X948436Y775970D02*
X956564D01*
X952500Y771906D02*
Y780034D01*
X494769Y462280D02*
X508069D01*
X501419Y455630D02*
Y468930D01*
X494769Y436880D02*
X508069D01*
X501419Y430230D02*
Y443530D01*
X494769Y411480D02*
X508069D01*
X501419Y404830D02*
Y418130D01*
X722907Y462280D02*
X736207D01*
X729557Y455630D02*
Y468930D01*
X722907Y436880D02*
X736207D01*
X729557Y430230D02*
Y443530D01*
X722907Y411480D02*
X736207D01*
X729557Y404830D02*
Y418130D01*
X951045Y462280D02*
X964345D01*
X957695Y455630D02*
Y468930D01*
X951045Y436880D02*
X964345D01*
X957695Y430230D02*
Y443530D01*
X951045Y411480D02*
X964345D01*
X957695Y404830D02*
Y418130D01*
M02*
