G04*
G04 #@! TF.GenerationSoftware,Altium Limited,Altium Designer,22.4.2 (48)*
G04*
G04 Layer_Color=32768*
%FSLAX44Y44*%
%MOMM*%
G71*
G04*
G04 #@! TF.SameCoordinates,69224164-BCDE-4545-B53B-617D96EECF20*
G04*
G04*
G04 #@! TF.FilePolarity,Positive*
G04*
G01*
G75*
%ADD43C,0.0500*%
D43*
X585147Y274000D02*
Y361000D01*
Y274000D02*
X691747D01*
Y361000D01*
X585147D02*
X691747D01*
X262570Y1125180D02*
X349570D01*
X262570Y1018580D02*
Y1125180D01*
Y1018580D02*
X349570D01*
Y1125180D01*
X261160Y546930D02*
X356060D01*
Y796730D01*
X261160D02*
X356060D01*
X261160Y546930D02*
Y796730D01*
X357675Y383580D02*
X404625D01*
Y490180D01*
X357675D02*
X404625D01*
X357675Y383580D02*
Y490180D01*
X266380Y273090D02*
X353380D01*
Y379690D01*
X266380D02*
X353380D01*
X266380Y273090D02*
Y379690D01*
X265110Y395010D02*
X352110D01*
Y501610D01*
X265110D02*
X352110D01*
X265110Y395010D02*
Y501610D01*
X357999Y274000D02*
Y361000D01*
Y274000D02*
X464599D01*
Y361000D01*
X357999D02*
X464599D01*
X471573Y274000D02*
Y361000D01*
Y274000D02*
X578173D01*
Y361000D01*
X471573D02*
X578173D01*
X698721Y274000D02*
Y361000D01*
Y274000D02*
X805321D01*
Y361000D01*
X698721D02*
X805321D01*
X355640Y1057590D02*
Y1144590D01*
Y1057590D02*
X462240D01*
Y1144590D01*
X355640D02*
X462240D01*
X467146Y1057590D02*
Y1144590D01*
Y1057590D02*
X573746D01*
Y1144590D01*
X467146D02*
X573746D01*
X578652Y1057590D02*
Y1144590D01*
Y1057590D02*
X685252D01*
Y1144590D01*
X578652D02*
X685252D01*
X690158Y1057590D02*
Y1144590D01*
Y1057590D02*
X796758D01*
Y1144590D01*
X690158D02*
X796758D01*
X642848Y383580D02*
Y490180D01*
X689798D01*
Y383580D02*
Y490180D01*
X642848Y383580D02*
X689798D01*
X414709D02*
Y490180D01*
X461660D01*
Y383580D02*
Y490180D01*
X414709Y383580D02*
X461660D01*
X870986D02*
Y490180D01*
X917936D01*
Y383580D02*
Y490180D01*
X870986Y383580D02*
X917936D01*
X812296Y274000D02*
Y361000D01*
Y274000D02*
X918896D01*
Y361000D01*
X812296D02*
X918896D01*
X925870Y274000D02*
Y361000D01*
Y274000D02*
X1032470D01*
Y361000D01*
X925870D02*
X1032470D01*
X813951Y383580D02*
Y490180D01*
X860901D01*
Y383580D02*
Y490180D01*
X813951Y383580D02*
X860901D01*
X585813D02*
Y490180D01*
X632763D01*
Y383580D02*
Y490180D01*
X585813Y383580D02*
X632763D01*
X801664Y1057590D02*
Y1144590D01*
Y1057590D02*
X908264D01*
Y1144590D01*
X801664D02*
X908264D01*
X528779Y383580D02*
Y490180D01*
X575729D01*
Y383580D02*
Y490180D01*
X528779Y383580D02*
X575729D01*
X913170Y1057590D02*
Y1144590D01*
Y1057590D02*
X1019770D01*
Y1144590D01*
X913170D02*
X1019770D01*
X756917Y383580D02*
Y490180D01*
X803867D01*
Y383580D02*
Y490180D01*
X756917Y383580D02*
X803867D01*
X985055D02*
Y490180D01*
X1032005D01*
Y383580D02*
Y490180D01*
X985055Y383580D02*
X1032005D01*
X471744D02*
Y490180D01*
X518694D01*
Y383580D02*
Y490180D01*
X471744Y383580D02*
X518694D01*
X699882D02*
Y490180D01*
X746832D01*
Y383580D02*
Y490180D01*
X699882Y383580D02*
X746832D01*
X928020D02*
Y490180D01*
X974970D01*
Y383580D02*
Y490180D01*
X928020Y383580D02*
X974970D01*
M02*
