G04*
G04 #@! TF.GenerationSoftware,Altium Limited,Altium Designer,22.4.2 (48)*
G04*
G04 Layer_Physical_Order=2*
G04 Layer_Color=16711680*
%FSLAX44Y44*%
%MOMM*%
G71*
G04*
G04 #@! TF.SameCoordinates,69224164-BCDE-4545-B53B-617D96EECF20*
G04*
G04*
G04 #@! TF.FilePolarity,Positive*
G04*
G01*
G75*
%ADD28C,1.5000*%
%ADD29C,1.0000*%
%ADD30C,5.0000*%
%ADD31C,1.6500*%
%ADD32R,1.6500X1.6500*%
%ADD33C,1.3500*%
%ADD34R,1.3500X1.3500*%
%ADD35C,1.4000*%
%ADD36O,1.3208X2.6416*%
%ADD37R,1.6500X1.6500*%
%ADD38C,1.9800*%
%ADD39C,1.5000*%
%ADD40R,1.5000X1.5000*%
%ADD41R,1.9950X1.9950*%
%ADD42C,1.9950*%
G36*
X1011940Y1173754D02*
Y1158955D01*
X1017777Y1153118D01*
X1040405Y1175745D01*
X1047476Y1168674D01*
X1024848Y1146047D01*
X1030685Y1140210D01*
X1057195D01*
X1061720Y1138336D01*
Y278676D01*
X1061005Y278380D01*
X1034495D01*
X1028658Y272543D01*
X1051285Y249916D01*
X1044214Y242845D01*
X1021587Y265472D01*
X1015750Y259635D01*
Y233125D01*
X1013876Y228600D01*
X273687D01*
X270760Y235665D01*
Y262175D01*
X264923Y268012D01*
X242295Y245385D01*
X235224Y252456D01*
X257852Y275083D01*
X252015Y280920D01*
X225505D01*
X217170Y284373D01*
Y1127033D01*
X230585Y1132590D01*
X257095D01*
X262932Y1138427D01*
X240305Y1161055D01*
X247376Y1168126D01*
X270003Y1145498D01*
X275840Y1151335D01*
Y1177845D01*
X281431Y1191405D01*
X995351Y1193701D01*
X1011940Y1173754D01*
D02*
G37*
%LPC*%
G36*
X401790Y1119340D02*
X400518Y1119340D01*
X365290D01*
Y1087152D01*
X355820Y1082285D01*
X346576Y1079735D01*
X324320Y1101991D01*
Y1115530D01*
X287820D01*
Y1079030D01*
X293235D01*
X296218Y1063403D01*
X309606Y1050015D01*
X306070Y1046480D01*
X309606Y1042944D01*
X298822Y1032161D01*
X299753Y1031230D01*
X312387D01*
X320314Y1027946D01*
Y984155D01*
X316839Y980680D01*
X306300D01*
Y970833D01*
X292304Y970338D01*
X286317Y970126D01*
X280121Y963930D01*
X286317Y957734D01*
X289461Y957623D01*
X306300Y957027D01*
Y947180D01*
X307614D01*
Y926016D01*
X306850Y925252D01*
Y924605D01*
X305907Y923830D01*
X282866Y920910D01*
X270854Y920910D01*
X270142Y920199D01*
X280396Y909946D01*
X276860Y906410D01*
X280396Y902875D01*
X270142Y892622D01*
X270854Y891910D01*
X266889Y884210D01*
X265380Y882701D01*
X260624Y871220D01*
Y845910D01*
X259360D01*
Y810910D01*
X274678D01*
X281305Y807337D01*
X288710Y792573D01*
X288710Y790910D01*
Y776087D01*
X300367Y764430D01*
X316853D01*
X331578Y750871D01*
Y592789D01*
X316853Y579230D01*
X300367D01*
X288710Y567573D01*
Y551087D01*
X292374Y547423D01*
Y483284D01*
X290360Y481269D01*
Y466151D01*
X298821Y457689D01*
X295216Y454084D01*
X289668Y440690D01*
Y431563D01*
X289668Y422910D01*
X289949Y418423D01*
X290360Y411849D01*
Y407895D01*
X290360D01*
Y404660D01*
X308610Y403968D01*
X326860Y404660D01*
Y407895D01*
X326860Y407895D01*
Y411849D01*
X327271Y418423D01*
X327552Y422910D01*
X327552Y432844D01*
X350375Y455667D01*
X355297Y455564D01*
X367375Y444383D01*
Y428606D01*
Y391505D01*
X371114D01*
Y335750D01*
X367649D01*
Y299250D01*
X402877D01*
X404149Y299250D01*
X424149Y304241D01*
X429139Y299250D01*
X444258D01*
X454949Y309941D01*
Y312789D01*
X455865Y313706D01*
X460621Y325186D01*
Y370263D01*
X472902Y377956D01*
X485183Y370263D01*
Y335750D01*
X481223D01*
Y299250D01*
X516451D01*
X517723Y299250D01*
X537723Y304241D01*
X542713Y299250D01*
X557832D01*
X568523Y309941D01*
Y312789D01*
X569934Y314200D01*
X574689Y325681D01*
Y370264D01*
X586971Y377957D01*
X599252Y370264D01*
Y335750D01*
X594797D01*
Y299250D01*
X630025D01*
X631297Y299250D01*
X651297Y304241D01*
X656288Y299250D01*
X671407D01*
X682097Y309941D01*
X688371Y316749D01*
X690794Y316647D01*
X708371Y308938D01*
Y299250D01*
X743599D01*
X744871Y299250D01*
X764871Y304241D01*
X769862Y299250D01*
X784981D01*
X795671Y309941D01*
X801945Y316777D01*
X803867Y316713D01*
X821945Y308990D01*
Y299250D01*
X857174D01*
X858445Y299250D01*
X878445Y304241D01*
X883436Y299250D01*
X898555D01*
X909246Y309941D01*
X909245Y310124D01*
X915520Y316939D01*
X917305Y316884D01*
X935520Y309134D01*
Y299250D01*
X970748D01*
X972020Y299250D01*
X992020Y304241D01*
X997011Y299250D01*
X1012129D01*
X1022820Y309941D01*
Y312789D01*
X1026210Y316180D01*
X1027603Y319542D01*
X1030966Y327660D01*
Y391505D01*
X1034705D01*
Y431455D01*
Y445154D01*
X1028158Y451701D01*
X1031705Y455249D01*
Y469311D01*
X1030269Y470748D01*
X1018266Y458745D01*
X1014730Y462280D01*
X1011195Y458745D01*
X999191Y470748D01*
X997755Y469311D01*
Y467285D01*
X986213Y460570D01*
X974670Y467285D01*
Y469311D01*
X973234Y470748D01*
X961231Y458745D01*
X957695Y462280D01*
X954160Y458745D01*
X942157Y470748D01*
X940720Y469311D01*
Y467285D01*
X929178Y460570D01*
X917636Y467285D01*
Y469311D01*
X916199Y470748D01*
X904196Y458745D01*
X900661Y462280D01*
X897125Y458745D01*
X885122Y470748D01*
X883686Y469311D01*
Y467285D01*
X872143Y460571D01*
X860602Y467285D01*
Y469311D01*
X859165Y470748D01*
X847162Y458745D01*
X843626Y462280D01*
X840091Y458745D01*
X828088Y470748D01*
X826652Y469311D01*
Y467285D01*
X815109Y460570D01*
X803567Y467285D01*
Y469311D01*
X802130Y470748D01*
X790127Y458745D01*
X786592Y462280D01*
X783056Y458745D01*
X771053Y470748D01*
X769617Y469311D01*
Y467285D01*
X758074Y460570D01*
X746532Y467285D01*
Y469311D01*
X745096Y470748D01*
X733093Y458745D01*
X729557Y462280D01*
X726022Y458745D01*
X714018Y470748D01*
X712582Y469311D01*
Y467285D01*
X701040Y460571D01*
X689498Y467285D01*
Y469311D01*
X688062Y470748D01*
X676058Y458745D01*
X672523Y462280D01*
X668987Y458745D01*
X656984Y470748D01*
X655548Y469311D01*
Y467285D01*
X644006Y460570D01*
X632463Y467285D01*
Y469311D01*
X631027Y470748D01*
X619024Y458745D01*
X615488Y462280D01*
X611953Y458745D01*
X599949Y470748D01*
X598513Y469311D01*
Y467285D01*
X586971Y460570D01*
X575429Y467285D01*
Y469311D01*
X573992Y470748D01*
X561989Y458745D01*
X558453Y462280D01*
X554918Y458745D01*
X542915Y470748D01*
X541479Y469311D01*
Y467285D01*
X529936Y460570D01*
X518394Y467285D01*
Y469311D01*
X516958Y470748D01*
X504954Y458745D01*
X501419Y462280D01*
X497883Y458745D01*
X485880Y470748D01*
X484444Y469311D01*
Y467285D01*
X472902Y460571D01*
X461360Y467285D01*
Y469311D01*
X459923Y470748D01*
X447920Y458745D01*
X444385Y462280D01*
X440849Y458745D01*
X428846Y470748D01*
X427410Y469311D01*
Y467285D01*
X415867Y460570D01*
X404325Y467285D01*
Y469311D01*
X402889Y470748D01*
X390886Y458745D01*
X383815Y465816D01*
X395818Y477819D01*
X394381Y479255D01*
X390344D01*
X375061Y493864D01*
X376823Y504395D01*
X379848Y510050D01*
X391852D01*
X401810Y520008D01*
Y534092D01*
X391852Y544050D01*
X377768D01*
X369462Y547491D01*
Y608209D01*
X377768Y611650D01*
X391852D01*
X392616Y612414D01*
X433461D01*
X434226Y611650D01*
X448309D01*
X449073Y612414D01*
X489919D01*
X490683Y611650D01*
X504766D01*
X505530Y612414D01*
X546376D01*
X547140Y611650D01*
X561223D01*
X561987Y612414D01*
X602833D01*
X603597Y611650D01*
X617681D01*
X618445Y612414D01*
X659291D01*
X660055Y611650D01*
X674138D01*
X674902Y612414D01*
X715748D01*
X716512Y611650D01*
X730595D01*
X731359Y612414D01*
X772205D01*
X772969Y611650D01*
X787052D01*
X787816Y612414D01*
X828662D01*
X829427Y611650D01*
X843510D01*
X844274Y612414D01*
X885120D01*
X885884Y611650D01*
X899967D01*
X900731Y612414D01*
X941577D01*
X942341Y611650D01*
X956424D01*
X957189Y612414D01*
X998034D01*
X998798Y611650D01*
X1012882D01*
X1022840Y621608D01*
X1022840Y635692D01*
X1026085Y640450D01*
X1015005Y651531D01*
X1022076Y658602D01*
X1031023Y649654D01*
X1033265Y655066D01*
Y668274D01*
X1031023Y673686D01*
X1022076Y664738D01*
X1015005Y671809D01*
X1023952Y680757D01*
X1018540Y682999D01*
X1005848Y680982D01*
X993140Y686246D01*
X987371Y683856D01*
X980432Y680982D01*
X975168Y668274D01*
Y655066D01*
X973812Y653037D01*
X956424Y645650D01*
X942341D01*
X923861Y650399D01*
X920743Y655066D01*
Y668274D01*
X918501Y673686D01*
X909554Y664738D01*
X902483Y671809D01*
X911430Y680757D01*
X906018Y682999D01*
X893326Y680982D01*
X880618Y686246D01*
X874848Y683856D01*
X867910Y680982D01*
X862646Y668274D01*
Y655066D01*
X861048Y652674D01*
X843510Y645650D01*
X829427D01*
X811096Y650762D01*
X808221Y655066D01*
Y668274D01*
X805979Y673686D01*
X797031Y664738D01*
X789960Y671809D01*
X798908Y680757D01*
X793496Y682999D01*
X793496Y682999D01*
X780804Y680982D01*
X768096Y686246D01*
X762327Y683856D01*
X755388Y680982D01*
X750124Y668274D01*
Y655066D01*
X748283Y652311D01*
X730595Y645650D01*
X716512D01*
X698332Y651125D01*
X695699Y655066D01*
Y668274D01*
X693457Y673686D01*
X684510Y664738D01*
X677439Y671809D01*
X686386Y680757D01*
X680974Y682999D01*
X680974Y682999D01*
X668282Y680982D01*
X655574Y686246D01*
X649805Y683856D01*
X642866Y680982D01*
X637602Y668274D01*
Y655066D01*
X635519Y651949D01*
X617681Y645650D01*
X603597D01*
X585568Y651488D01*
X583177Y655066D01*
Y668274D01*
X580935Y673686D01*
X571987Y664738D01*
X564916Y671809D01*
X573864Y680757D01*
X568452Y682999D01*
X568452Y682999D01*
X555760Y680982D01*
X543052Y686246D01*
X537282Y683856D01*
X530344Y680982D01*
X525080Y668274D01*
Y655066D01*
X522755Y651586D01*
X504766Y645650D01*
X490683D01*
X472804Y651850D01*
X470655Y655066D01*
Y668274D01*
X468413Y673686D01*
X459465Y664738D01*
X452394Y671809D01*
X461342Y680757D01*
X455930Y682999D01*
X455930Y682999D01*
X443238Y680982D01*
X430530Y686246D01*
X424761Y683856D01*
X417822Y680982D01*
X412558Y668274D01*
Y655066D01*
X409991Y651224D01*
X391852Y645650D01*
X377768D01*
X369462Y649091D01*
Y735051D01*
X381077Y749872D01*
X395636Y753515D01*
X409866Y745714D01*
X410081Y745528D01*
X412558Y736163D01*
Y731266D01*
X417822Y718558D01*
X424761Y715684D01*
X430530Y713294D01*
X443238Y718558D01*
X455930Y716541D01*
X455930Y716541D01*
X461342Y718783D01*
X452394Y727730D01*
X459465Y734801D01*
X468413Y725854D01*
X470655Y731266D01*
Y739792D01*
X470655Y743480D01*
X475740Y747509D01*
X488012Y754834D01*
X490881Y753645D01*
X496316Y751394D01*
X506265Y755515D01*
X523416Y745304D01*
X525080Y736163D01*
Y731266D01*
X530344Y718558D01*
X537283Y715684D01*
X543052Y713294D01*
X555760Y718558D01*
X568452Y716541D01*
X568452Y716541D01*
X573864Y718783D01*
X564916Y727730D01*
X571987Y734801D01*
X580935Y725854D01*
X583177Y731266D01*
Y738248D01*
X583177Y744474D01*
X583502Y745788D01*
X597338Y753906D01*
X600218Y755596D01*
X606109Y753156D01*
X610362Y751394D01*
X620572Y755623D01*
X635538Y746913D01*
X636664Y745582D01*
X637602Y736163D01*
Y731266D01*
X642866Y718558D01*
X649805Y715684D01*
X655574Y713294D01*
X668282Y718558D01*
X680974Y716541D01*
X680974Y716541D01*
X686386Y718783D01*
X677439Y727730D01*
X684510Y734801D01*
X693457Y725854D01*
X695699Y731266D01*
Y736892D01*
X695699Y744474D01*
X695813Y744713D01*
X698453Y749918D01*
X707718Y754188D01*
X712424Y756358D01*
X721334Y752667D01*
X724408Y751394D01*
X732779Y754861D01*
X745240Y747398D01*
X749996Y743635D01*
X750124Y736163D01*
Y731266D01*
X755388Y718558D01*
X762327Y715684D01*
X768096Y713294D01*
X780804Y718558D01*
X793496Y716541D01*
X793496Y716541D01*
X798908Y718783D01*
X789960Y727730D01*
X797031Y734801D01*
X805979Y725854D01*
X808221Y731266D01*
Y744474D01*
X805979Y749886D01*
X797031Y740938D01*
X789960Y748009D01*
X798908Y756957D01*
X793496Y759199D01*
X793496Y759199D01*
X782686Y757481D01*
X767517Y765450D01*
X764533Y780924D01*
Y782574D01*
X762291Y787986D01*
X753344Y779038D01*
X746273Y786109D01*
X755220Y795057D01*
X749808Y797299D01*
X749808Y797299D01*
X737116Y795282D01*
X724408Y800546D01*
X718639Y798156D01*
X711700Y795282D01*
X706436Y782574D01*
Y774615D01*
X706436Y769366D01*
X706048Y767920D01*
X705305Y766198D01*
X686268Y757006D01*
X680974Y759199D01*
X680974Y759199D01*
X680974Y759199D01*
X668282Y757182D01*
X665856Y758187D01*
X654466Y766472D01*
X650487Y780924D01*
Y782574D01*
X648245Y787986D01*
X639297Y779038D01*
X632226Y786109D01*
X641174Y795057D01*
X635762Y797299D01*
X635762Y797299D01*
X623070Y795282D01*
X610362Y800546D01*
X604593Y798156D01*
X597654Y795282D01*
X592390Y782574D01*
Y773164D01*
X592390Y769366D01*
X592126Y766253D01*
X575475Y756290D01*
X568452Y759199D01*
X555760Y757182D01*
X552034Y758726D01*
X541912Y765633D01*
X536441Y780924D01*
Y782574D01*
X534199Y787986D01*
X525252Y779038D01*
X518181Y786109D01*
X527128Y795057D01*
X521716Y797299D01*
X521716Y797299D01*
X509024Y795282D01*
X496316Y800546D01*
X490546Y798156D01*
X483608Y795282D01*
X478344Y782574D01*
Y772093D01*
X478344Y769366D01*
X478407Y768634D01*
X470113Y762629D01*
X462316Y756984D01*
X461252Y756995D01*
X455930Y759199D01*
X443238Y757182D01*
X438211Y759265D01*
X429458Y764855D01*
X422395Y780724D01*
Y782574D01*
X420153Y787986D01*
X411205Y779038D01*
X404134Y786109D01*
X413082Y795057D01*
X407670Y797299D01*
X394978Y795282D01*
X387893Y798217D01*
X381348Y814070D01*
X387893Y829923D01*
X394978Y832858D01*
X407670Y830841D01*
X413082Y833083D01*
X404134Y842030D01*
X411205Y849101D01*
X420153Y840154D01*
X422395Y845566D01*
Y858774D01*
X420219Y864028D01*
X421738Y869342D01*
X434133Y884028D01*
X470023D01*
X480520Y864028D01*
X478344Y858774D01*
Y845566D01*
X483608Y832858D01*
X490547Y829984D01*
X496316Y827594D01*
X509024Y832858D01*
X521716Y830841D01*
X521716Y830841D01*
X527128Y833083D01*
X518181Y842030D01*
X525252Y849101D01*
X534199Y840154D01*
X536441Y845566D01*
Y858774D01*
X534265Y864028D01*
X535453Y867717D01*
X547163Y884028D01*
X584069D01*
X594566Y864028D01*
X592390Y858774D01*
Y845566D01*
X597654Y832858D01*
X604593Y829984D01*
X610362Y827594D01*
X623070Y832858D01*
X635762Y830841D01*
X635762Y830841D01*
X641174Y833083D01*
X632226Y842030D01*
X639297Y849101D01*
X648245Y840154D01*
X650487Y845566D01*
Y858774D01*
X648837Y862758D01*
X658733Y882758D01*
X696845D01*
X708086Y862758D01*
X706436Y858774D01*
Y845566D01*
X711700Y832858D01*
X718639Y829984D01*
X724408Y827594D01*
X737116Y832858D01*
X749808Y830841D01*
X749808Y830841D01*
X755220Y833083D01*
X746273Y842030D01*
X753344Y849101D01*
X762291Y840154D01*
X764533Y845566D01*
Y858774D01*
X762883Y862758D01*
X772779Y882758D01*
X810891D01*
X822132Y862758D01*
X820482Y858774D01*
Y845566D01*
X823356Y838627D01*
X825746Y832858D01*
X838454Y827594D01*
X844223Y829984D01*
X851162Y832858D01*
X863854Y830841D01*
X869266Y833083D01*
X860319Y842030D01*
X867390Y849101D01*
X876337Y840154D01*
X878579Y845566D01*
Y858774D01*
X876929Y862758D01*
X886825Y882758D01*
X924937D01*
X936178Y862758D01*
X934528Y858774D01*
Y845566D01*
X937402Y838627D01*
X939792Y832858D01*
X952500Y827594D01*
X958270Y829984D01*
X965208Y832858D01*
X977900Y830841D01*
X983312Y833083D01*
X974364Y842030D01*
X981435Y849101D01*
X990383Y840154D01*
X992625Y845566D01*
Y858774D01*
X990975Y862758D01*
X992859Y875580D01*
X998929Y884700D01*
X1000956D01*
X1002620Y886364D01*
X1007308Y888306D01*
X1009250Y892994D01*
X1010914Y894658D01*
Y897012D01*
X1012856Y901700D01*
X1010914Y906388D01*
Y908742D01*
X1009250Y910406D01*
X1007308Y915094D01*
X1002620Y917036D01*
X1000956Y918700D01*
X998602D01*
X993914Y920642D01*
X840770D01*
X837704Y921912D01*
X834638Y920642D01*
X732314D01*
X731716Y921240D01*
X729362D01*
X724674Y923182D01*
X719986Y921240D01*
X717633D01*
X717034Y920642D01*
X613203D01*
X612687Y920428D01*
X609104Y921912D01*
X547163D01*
X545541Y921240D01*
X542334D01*
X540712Y921912D01*
X434133D01*
X430034Y920214D01*
X425936Y921912D01*
X380504D01*
X375816Y919970D01*
X373463D01*
X371798Y918306D01*
X367110Y916364D01*
X360097Y909351D01*
X340850Y918388D01*
Y925252D01*
X340086Y926016D01*
Y958005D01*
X348031Y965950D01*
X352786Y977430D01*
Y979962D01*
X372786Y988247D01*
X373463Y987570D01*
X387546D01*
X393971Y993996D01*
X406654Y995501D01*
X415823Y993470D01*
X422993Y986300D01*
X437076D01*
X447034Y996258D01*
Y1010342D01*
X446270Y1011106D01*
Y1087211D01*
X452590Y1093531D01*
Y1108649D01*
X441899Y1119340D01*
X426781D01*
X421790Y1114349D01*
X401790Y1119340D01*
X401790Y1119340D01*
D02*
G37*
G36*
X291751Y1053728D02*
X290820Y1052797D01*
Y1040163D01*
X291751Y1039232D01*
X298999Y1046480D01*
X291751Y1053728D01*
D02*
G37*
G36*
X513296Y1119340D02*
X512024Y1119340D01*
X476796D01*
Y1082840D01*
X478568D01*
Y1012376D01*
X477804Y1011612D01*
Y997528D01*
X487763Y987570D01*
X501846D01*
X508117Y993841D01*
X517797Y996515D01*
X530495Y994368D01*
X536023Y988840D01*
X550106D01*
X560064Y998798D01*
Y1012882D01*
X559300Y1013646D01*
Y1088735D01*
X564096Y1093531D01*
Y1108649D01*
X553405Y1119340D01*
X538287D01*
X533296Y1114349D01*
X513296Y1119340D01*
X513296Y1119340D01*
D02*
G37*
G36*
X959320D02*
X958048Y1119340D01*
X922820D01*
Y1082840D01*
X933228D01*
Y1011106D01*
X932464Y1010342D01*
Y996258D01*
X942423Y986300D01*
X956506D01*
X959711Y989505D01*
X971689Y994207D01*
X983667Y989505D01*
X986873Y986300D01*
X1000956D01*
X1010914Y996258D01*
Y1010342D01*
X1008106Y1013150D01*
Y1091516D01*
X1010120Y1093531D01*
Y1108649D01*
X999429Y1119340D01*
X984311D01*
X979320Y1114349D01*
X959320Y1119340D01*
X959320Y1119340D01*
D02*
G37*
G36*
X847814D02*
X846542Y1119340D01*
X811314D01*
Y1082840D01*
X821468D01*
Y1012376D01*
X820704Y1011612D01*
Y997528D01*
X830663Y987570D01*
X844746D01*
X847579Y990404D01*
X860736Y994787D01*
X871535Y989877D01*
X875113Y986300D01*
X889196D01*
X899154Y996258D01*
Y1010342D01*
X898390Y1011106D01*
Y1093307D01*
X898614Y1093531D01*
Y1108649D01*
X887923Y1119340D01*
X872805D01*
X867814Y1114349D01*
X847814Y1119340D01*
X847814Y1119340D01*
D02*
G37*
G36*
X736308D02*
X735036Y1119340D01*
X699808D01*
Y1082840D01*
X708438D01*
Y1013646D01*
X707674Y1012882D01*
Y998798D01*
X717633Y988840D01*
X731716D01*
X734177Y991301D01*
X748494Y995256D01*
X758133Y990249D01*
X762083Y986300D01*
X776166D01*
X786124Y996258D01*
Y1010342D01*
X785360Y1011106D01*
Y1091783D01*
X787108Y1093531D01*
Y1108649D01*
X776417Y1119340D01*
X761299D01*
X756308Y1114349D01*
X736308Y1119340D01*
X736308Y1119340D01*
D02*
G37*
G36*
X624802D02*
X623530Y1119340D01*
X588302D01*
Y1082840D01*
X592868D01*
Y1012376D01*
X592104Y1011612D01*
Y997528D01*
X602063Y987570D01*
X616146D01*
X620775Y992200D01*
X633582Y995037D01*
X643679Y991674D01*
X649053Y986300D01*
X663136D01*
X673094Y996258D01*
X673094Y1002175D01*
Y1010342D01*
X672330Y1011106D01*
Y1090259D01*
X675602Y1093531D01*
Y1108649D01*
X664911Y1119340D01*
X649793D01*
X644802Y1114349D01*
X624802Y1119340D01*
X624802Y1119340D01*
D02*
G37*
G36*
X267355Y977680D02*
X266863Y977188D01*
X273050Y971001D01*
X279237Y977188D01*
X278745Y977680D01*
X267355D01*
D02*
G37*
G36*
X259792Y970117D02*
X259300Y969625D01*
X259300Y958235D01*
X259792Y957743D01*
X265979Y963930D01*
X259792Y970117D01*
D02*
G37*
G36*
X273050Y956859D02*
X266863Y950672D01*
X267355Y950180D01*
X278745D01*
X279237Y950672D01*
X273050Y956859D01*
D02*
G37*
G36*
X263071Y913128D02*
X262360Y912416D01*
X262360Y904428D01*
Y900404D01*
X263071Y899693D01*
X269789Y906410D01*
X263071Y913128D01*
D02*
G37*
G36*
X952500Y800546D02*
X946731Y798156D01*
X939792Y795282D01*
X934528Y782574D01*
Y769366D01*
X939792Y756658D01*
X946730Y753784D01*
X952500Y751394D01*
X957191Y753337D01*
X964162Y749901D01*
X975168Y740486D01*
X975168Y731266D01*
X978042Y724327D01*
X980432Y718558D01*
X993140Y713294D01*
X998910Y715684D01*
X1005848Y718558D01*
X1018540Y716541D01*
X1023952Y718783D01*
X1015005Y727730D01*
X1022076Y734801D01*
X1031023Y725854D01*
X1033265Y731266D01*
Y744474D01*
X1031023Y749886D01*
X1022076Y740938D01*
X1015005Y748009D01*
X1023952Y756957D01*
X1018540Y759199D01*
X1009759Y757804D01*
X992925Y770153D01*
X992625Y780924D01*
Y782574D01*
X990383Y787986D01*
X981435Y779038D01*
X974364Y786109D01*
X983312Y795057D01*
X977900Y797299D01*
X965208Y795282D01*
X952500Y800546D01*
D02*
G37*
G36*
X838454D02*
X832685Y798156D01*
X825746Y795282D01*
X820482Y782574D01*
Y769366D01*
X825746Y756658D01*
X832684Y753784D01*
X838454Y751394D01*
X844985Y754099D01*
X853814Y749287D01*
X862646Y742010D01*
Y731266D01*
X865520Y724327D01*
X867910Y718558D01*
X880618Y713294D01*
X886387Y715684D01*
X893326Y718558D01*
X906018Y716541D01*
X911430Y718783D01*
X902483Y727730D01*
X909554Y734801D01*
X918501Y725854D01*
X920743Y731266D01*
Y744474D01*
X918501Y749886D01*
X909554Y740938D01*
X902483Y748009D01*
X911430Y756957D01*
X906018Y759199D01*
X897216Y757800D01*
X879809Y769780D01*
X878579Y780924D01*
Y782574D01*
X876337Y787986D01*
X867390Y779038D01*
X860319Y786109D01*
X869266Y795057D01*
X863854Y797299D01*
X851162Y795282D01*
X838454Y800546D01*
D02*
G37*
G36*
X1012882Y544050D02*
X998798D01*
X988840Y534092D01*
Y520008D01*
X998798Y510050D01*
X1012882D01*
X1022840Y520008D01*
Y534092D01*
X1012882Y544050D01*
D02*
G37*
G36*
X956424D02*
X942341D01*
X932383Y534092D01*
Y520008D01*
X942341Y510050D01*
X956424D01*
X966383Y520008D01*
Y534092D01*
X956424Y544050D01*
D02*
G37*
G36*
X899967D02*
X885884D01*
X875925Y534092D01*
Y520008D01*
X885884Y510050D01*
X899967D01*
X909925Y520008D01*
Y534092D01*
X899967Y544050D01*
D02*
G37*
G36*
X843510D02*
X829427D01*
X819468Y534092D01*
Y520008D01*
X829427Y510050D01*
X843510D01*
X853468Y520008D01*
Y534092D01*
X843510Y544050D01*
D02*
G37*
G36*
X787052D02*
X772969D01*
X763011Y534092D01*
Y520008D01*
X772969Y510050D01*
X787052D01*
X797011Y520008D01*
Y534092D01*
X787052Y544050D01*
D02*
G37*
G36*
X730595D02*
X716512D01*
X706554Y534092D01*
Y520008D01*
X716512Y510050D01*
X730595D01*
X740554Y520008D01*
Y534092D01*
X730595Y544050D01*
D02*
G37*
G36*
X674138D02*
X660055D01*
X650097Y534092D01*
Y520008D01*
X660055Y510050D01*
X674138D01*
X684096Y520008D01*
Y534092D01*
X674138Y544050D01*
D02*
G37*
G36*
X617681D02*
X603597D01*
X593639Y534092D01*
Y520008D01*
X603597Y510050D01*
X617681D01*
X627639Y520008D01*
Y534092D01*
X617681Y544050D01*
D02*
G37*
G36*
X561223D02*
X547140D01*
X537182Y534092D01*
Y520008D01*
X547140Y510050D01*
X561223D01*
X571182Y520008D01*
Y534092D01*
X561223Y544050D01*
D02*
G37*
G36*
X504766D02*
X490683D01*
X480725Y534092D01*
Y520008D01*
X490683Y510050D01*
X504766D01*
X514725Y520008D01*
Y534092D01*
X504766Y544050D01*
D02*
G37*
G36*
X448309D02*
X434226D01*
X424267Y534092D01*
Y520008D01*
X434226Y510050D01*
X448309D01*
X458267Y520008D01*
Y534092D01*
X448309Y544050D01*
D02*
G37*
G36*
X1021761Y479255D02*
X1007699D01*
X1006262Y477819D01*
X1014730Y469351D01*
X1023198Y477819D01*
X1021761Y479255D01*
D02*
G37*
G36*
X964727D02*
X950664D01*
X949228Y477819D01*
X957695Y469351D01*
X966163Y477819D01*
X964727Y479255D01*
D02*
G37*
G36*
X907692D02*
X893629D01*
X892193Y477819D01*
X900661Y469351D01*
X909128Y477819D01*
X907692Y479255D01*
D02*
G37*
G36*
X850658D02*
X836595D01*
X835159Y477819D01*
X843626Y469351D01*
X852094Y477819D01*
X850658Y479255D01*
D02*
G37*
G36*
X793623D02*
X779560D01*
X778124Y477819D01*
X786592Y469351D01*
X795059Y477819D01*
X793623Y479255D01*
D02*
G37*
G36*
X622519D02*
X608457D01*
X607021Y477819D01*
X615488Y469351D01*
X623956Y477819D01*
X622519Y479255D01*
D02*
G37*
G36*
X565485D02*
X551422D01*
X549986Y477819D01*
X558453Y469351D01*
X566921Y477819D01*
X565485Y479255D01*
D02*
G37*
G36*
X508450D02*
X494388D01*
X492951Y477819D01*
X501419Y469351D01*
X509887Y477819D01*
X508450Y479255D01*
D02*
G37*
G36*
X451416D02*
X437353D01*
X435917Y477819D01*
X444385Y469351D01*
X452852Y477819D01*
X451416Y479255D01*
D02*
G37*
G36*
X736588D02*
X722526D01*
X721089Y477819D01*
X729557Y469351D01*
X738025Y477819D01*
X736588Y479255D01*
D02*
G37*
G36*
X679554D02*
X665492D01*
X664055Y477819D01*
X672523Y469351D01*
X680991Y477819D01*
X679554Y479255D01*
D02*
G37*
G36*
X316197Y367040D02*
X303563D01*
X302632Y366109D01*
X309880Y358861D01*
X317128Y366109D01*
X316197Y367040D01*
D02*
G37*
G36*
X295561Y359038D02*
X294630Y358107D01*
Y345473D01*
X295561Y344542D01*
X302809Y351790D01*
X295561Y359038D01*
D02*
G37*
G36*
X324199Y359038D02*
X316951Y351790D01*
X324199Y344542D01*
X325130Y345473D01*
Y358107D01*
X324199Y359038D01*
D02*
G37*
G36*
X309880Y344719D02*
X302632Y337471D01*
X303563Y336540D01*
X316197D01*
X317128Y337471D01*
X309880Y344719D01*
D02*
G37*
G36*
X318059Y316240D02*
X301701D01*
X309880Y308061D01*
X318059Y316240D01*
D02*
G37*
G36*
X294630Y309169D02*
Y292811D01*
X302809Y300990D01*
X294630Y309169D01*
D02*
G37*
G36*
X325130Y309169D02*
X316951Y300990D01*
X325130Y292811D01*
Y309169D01*
D02*
G37*
G36*
X309880Y293919D02*
X301701Y285740D01*
X318059D01*
X309880Y293919D01*
D02*
G37*
%LPD*%
D28*
X838974Y901700D02*
X949464D01*
X613203D02*
X722134D01*
X769124D02*
X836434D01*
X727214D02*
X769124D01*
X722134D02*
X724674Y904240D01*
X727214Y901700D01*
X837704Y902970D02*
X838974Y901700D01*
X836434D02*
X837704Y902970D01*
X350520Y872986D02*
X380504Y902970D01*
X308610Y440690D02*
X350520Y482600D01*
Y872986D01*
X308610Y422910D02*
Y440690D01*
X949464Y901700D02*
X993914D01*
X355600Y439420D02*
X376556Y460376D01*
X387350Y462280D02*
X444385D01*
X455930Y737870D02*
Y770112D01*
X450072Y775970D02*
X455930Y770112D01*
X407670Y775970D02*
X450072D01*
X562594D02*
X568452Y770112D01*
Y737870D02*
Y770112D01*
X521716Y775970D02*
X562594D01*
X521716Y753110D02*
Y775970D01*
X635762D02*
X675116D01*
X680974Y737870D02*
Y770112D01*
X675116Y775970D02*
X680974Y770112D01*
X635762Y753110D02*
Y775970D01*
X680974Y737870D02*
X734568D01*
X793496D02*
Y770112D01*
X749808Y775970D02*
X787638D01*
X793496Y770112D01*
X1012682Y775970D02*
X1018540Y770112D01*
Y737870D02*
Y770112D01*
X977900Y775970D02*
X1012682D01*
X906018Y737870D02*
Y769604D01*
X899652Y775970D02*
X906018Y769604D01*
X863854Y775970D02*
X899652D01*
X906018Y737870D02*
X962660D01*
X380504Y902970D02*
X425936D01*
X494804D02*
X540712D01*
X434133D02*
X494804D01*
X547163D02*
X609104D01*
X455930Y737870D02*
X506476D01*
X521716Y753110D01*
X620522Y737870D02*
X635762Y753110D01*
X568452Y737870D02*
X620522D01*
X749808Y753110D02*
Y775970D01*
X734568Y737870D02*
X749808Y753110D01*
X863854D02*
Y775970D01*
X848614Y737870D02*
X863854Y753110D01*
X793496Y737870D02*
X848614D01*
X977900Y753110D02*
Y775970D01*
X962660Y737870D02*
X977900Y753110D01*
X444385Y462280D02*
X501419D01*
X558453D01*
X615488D01*
X957695D02*
X1014730D01*
X900661D02*
X957695D01*
X786592D02*
X843626D01*
X900661D01*
X729557D02*
X786592D01*
X615488D02*
X672523D01*
X729557D01*
D29*
X953770Y317500D02*
X957020Y320750D01*
X957695Y321425D01*
X843626Y317500D02*
Y411480D01*
X276860Y828410D02*
Y871220D01*
X436699Y317500D02*
X444385Y325186D01*
X550273Y317500D02*
X558453Y325681D01*
X663847Y317500D02*
X672523Y326176D01*
X777421Y317500D02*
X786592Y326670D01*
X890995Y317500D02*
X900661Y327165D01*
X957695Y321425D02*
Y411480D01*
X1004570Y317500D02*
X1014730Y327660D01*
Y411480D01*
X729557Y320436D02*
Y411480D01*
X615488Y319941D02*
Y411480D01*
X672523Y326176D02*
Y411480D01*
X786592Y326670D02*
Y411480D01*
X900661Y327165D02*
Y411480D01*
X387350Y318951D02*
Y411480D01*
X444385Y325186D02*
Y411480D01*
X501419Y319446D02*
Y411480D01*
X558453Y325681D02*
Y411480D01*
X383540Y1007606D02*
Y1101090D01*
X380504Y1004570D02*
X383540Y1007606D01*
X430034Y1096784D02*
X434340Y1101090D01*
X430034Y1003300D02*
Y1096784D01*
X494804Y1100848D02*
X495046Y1101090D01*
X494804Y1004570D02*
Y1100848D01*
X543064Y1098308D02*
X545846Y1101090D01*
X543064Y1005840D02*
Y1098308D01*
X606552Y1101090D02*
X609104Y1098538D01*
Y1004570D02*
Y1098538D01*
X656094Y1099832D02*
X657352Y1101090D01*
X656094Y1003300D02*
Y1099832D01*
X718058Y1101090D02*
X724674Y1094474D01*
Y1005840D02*
Y1094474D01*
X768858Y1101090D02*
X769124Y1100824D01*
Y1003300D02*
Y1100824D01*
X829564Y1101090D02*
X837704Y1092950D01*
Y1004570D02*
Y1092950D01*
X880364Y1101090D02*
X882154Y1099300D01*
Y1003300D02*
Y1099300D01*
X941070Y1101090D02*
X949464Y1092696D01*
Y1003300D02*
Y1092696D01*
X991870Y1005344D02*
X993914Y1003300D01*
X991870Y1005344D02*
Y1101090D01*
X306070Y1097280D02*
X336550Y1066800D01*
X323050Y963930D02*
X336550Y977430D01*
Y1066800D01*
X323850Y918210D02*
Y963530D01*
X276860Y871220D02*
X323850Y918210D01*
X308610Y784330D02*
Y801370D01*
X323850Y816610D01*
X308610Y473710D02*
Y559330D01*
X385446Y460376D02*
X387350Y462280D01*
X376556Y460376D02*
X385446D01*
X311124Y353034D02*
X318744D01*
X309880Y351790D02*
X311124Y353034D01*
X429269Y902466D02*
X430034Y901700D01*
X426441Y902466D02*
X429269D01*
X425936Y902970D02*
X426441Y902466D01*
X430034Y901700D02*
X430800Y902466D01*
X433628D02*
X434133Y902970D01*
X430800Y902466D02*
X433628D01*
X541982Y904240D02*
X543064D01*
X540712Y902970D02*
X541982Y904240D01*
X543064D02*
X543830Y903474D01*
X546658D01*
X547163Y902970D01*
X609104D02*
X609870Y902204D01*
X612698D02*
X613203Y901700D01*
X609870Y902204D02*
X612698D01*
X836468Y628650D02*
X892925D01*
X949383D01*
X1005840D01*
X384810D02*
X441267D01*
X780011D02*
X836468D01*
X723553D02*
X780011D01*
X667096D02*
X723553D01*
X441267D02*
X497725D01*
X554182D01*
X610639D02*
X667096D01*
X554182D02*
X610639D01*
D30*
X1043940Y1172210D02*
D03*
X1047750Y246380D02*
D03*
X238760Y248920D02*
D03*
X243840Y1164590D02*
D03*
D31*
X663847Y317500D02*
D03*
X306070Y1046480D02*
D03*
X309880Y351790D02*
D03*
X308610Y473710D02*
D03*
X436699Y317500D02*
D03*
X550273D02*
D03*
X777421D02*
D03*
X434340Y1101090D02*
D03*
X545846D02*
D03*
X657352D02*
D03*
X768858D02*
D03*
X890995Y317500D02*
D03*
X1004570D02*
D03*
X880364Y1101090D02*
D03*
X991870D02*
D03*
D32*
X613047Y317500D02*
D03*
X385899D02*
D03*
X499473D02*
D03*
X726621D02*
D03*
X383540Y1101090D02*
D03*
X495046D02*
D03*
X606552D02*
D03*
X718058D02*
D03*
X840195Y317500D02*
D03*
X953770D02*
D03*
X829564Y1101090D02*
D03*
X941070D02*
D03*
D33*
X273050Y963930D02*
D03*
D34*
X323050D02*
D03*
D35*
X323850Y918210D02*
D03*
Y816610D02*
D03*
X380504Y1004570D02*
D03*
Y902970D02*
D03*
X724674Y1005840D02*
D03*
Y904240D02*
D03*
X837704Y1004570D02*
D03*
Y902970D02*
D03*
X494804Y1004570D02*
D03*
Y902970D02*
D03*
X543064Y1005840D02*
D03*
Y904240D02*
D03*
X609104Y1004570D02*
D03*
Y902970D02*
D03*
X882154Y1003300D02*
D03*
Y901700D02*
D03*
X769124Y1003300D02*
D03*
Y901700D02*
D03*
X656094Y1003300D02*
D03*
Y901700D02*
D03*
X430034Y1003300D02*
D03*
Y901700D02*
D03*
X949464Y1003300D02*
D03*
Y901700D02*
D03*
X993914Y1003300D02*
D03*
Y901700D02*
D03*
X667096Y527050D02*
D03*
Y628650D02*
D03*
X441267Y527050D02*
D03*
Y628650D02*
D03*
X892925Y527050D02*
D03*
Y628650D02*
D03*
X384810Y527050D02*
D03*
Y628650D02*
D03*
X836468Y527050D02*
D03*
Y628650D02*
D03*
X610639Y527050D02*
D03*
Y628650D02*
D03*
X554182Y527050D02*
D03*
Y628650D02*
D03*
X780011Y527050D02*
D03*
Y628650D02*
D03*
X1005840Y527050D02*
D03*
Y628650D02*
D03*
X497725Y527050D02*
D03*
Y628650D02*
D03*
X723553Y527050D02*
D03*
Y628650D02*
D03*
X949383Y527050D02*
D03*
Y628650D02*
D03*
D36*
X543052Y661670D02*
D03*
X568452D02*
D03*
Y737870D02*
D03*
X543052D02*
D03*
X430530Y661670D02*
D03*
X455930D02*
D03*
Y737870D02*
D03*
X430530D02*
D03*
X880618Y661670D02*
D03*
X906018D02*
D03*
Y737870D02*
D03*
X880618D02*
D03*
X655574D02*
D03*
X680974D02*
D03*
Y661670D02*
D03*
X655574D02*
D03*
X382270Y852170D02*
D03*
X407670D02*
D03*
Y775970D02*
D03*
X382270D02*
D03*
X838454Y852170D02*
D03*
X863854D02*
D03*
Y775970D02*
D03*
X838454D02*
D03*
X610362Y852170D02*
D03*
X635762D02*
D03*
Y775970D02*
D03*
X610362D02*
D03*
X768096Y737870D02*
D03*
X793496D02*
D03*
Y661670D02*
D03*
X768096D02*
D03*
X993140Y737870D02*
D03*
X1018540D02*
D03*
Y661670D02*
D03*
X993140D02*
D03*
X496316Y852170D02*
D03*
X521716D02*
D03*
Y775970D02*
D03*
X496316D02*
D03*
X724408Y852170D02*
D03*
X749808D02*
D03*
Y775970D02*
D03*
X724408D02*
D03*
X952500Y852170D02*
D03*
X977900D02*
D03*
Y775970D02*
D03*
X952500D02*
D03*
D37*
X306070Y1097280D02*
D03*
X309880Y300990D02*
D03*
X308610Y422910D02*
D03*
D38*
Y784330D02*
D03*
Y559330D02*
D03*
D39*
X276860Y906410D02*
D03*
D40*
Y828410D02*
D03*
D41*
X387350Y411480D02*
D03*
X672523D02*
D03*
X444385D02*
D03*
X900661D02*
D03*
X843626D02*
D03*
X615488D02*
D03*
X558453D02*
D03*
X786592D02*
D03*
X1014730D02*
D03*
X501419D02*
D03*
X729557D02*
D03*
X957695D02*
D03*
D42*
X387350Y436880D02*
D03*
Y462280D02*
D03*
X672523D02*
D03*
Y436880D02*
D03*
X444385Y462280D02*
D03*
Y436880D02*
D03*
X900661Y462280D02*
D03*
Y436880D02*
D03*
X843626Y462280D02*
D03*
Y436880D02*
D03*
X615488Y462280D02*
D03*
Y436880D02*
D03*
X558453Y462280D02*
D03*
Y436880D02*
D03*
X786592Y462280D02*
D03*
Y436880D02*
D03*
X1014730Y462280D02*
D03*
Y436880D02*
D03*
X501419Y462280D02*
D03*
Y436880D02*
D03*
X729557Y462280D02*
D03*
Y436880D02*
D03*
X957695Y462280D02*
D03*
Y436880D02*
D03*
M02*
